<?xml version="1.0" encoding="utf-8"?><svg width="46" height="49" viewBox="0 0 46 49" xmlns="http://www.w3.org/2000/svg" xmlns:xlink="http://www.w3.org/1999/xlink"><svg width="16" height="18" viewBox="0 0 16 18" id="downlaod-apple" xmlns="http://www.w3.org/2000/svg"><path fill="#AD0256" d="M11.193 0C9.168.676 7.59 1.354 7.816 4.286 9.84 3.835 11.643 2.707 11.193 0zm-6.43 4.071C2.816 4.071 0 5.786 0 9c0 4.5 3.032 9 4.764 9 1.3 0 2.382-.857 3.248-.857.866 0 1.732.857 3.032.857 1.732 0 3.68-2.571 4.114-4.929-1.516-1.071-2.599-1.714-2.599-3.642 0-1.286 1.083-2.572 2.382-3.643-.65-.857-1.949-1.715-3.248-1.715-1.299 0-2.696 1.017-3.681 1.072-.866 0-1.949-1.072-3.248-1.072z"/></svg><svg width="16" height="17" viewBox="0 0 16 17" id="downlaod-windows" x="16" y="18" xmlns="http://www.w3.org/2000/svg"><path fill="#AD0256" d="M16.001 9.155v7.215c0 .016-.003.027-.003.043a.325.325 0 0 1-.364.283l-7.084-.95a.326.326 0 0 1-.31-.325V9.147h.004c0-.182.146-.33.322-.33l7.083.012h.027c.18 0 .325.147.325.326zm-8.527-.012v6.143a.325.325 0 0 1-.363.283l-6.678-.84a.327.327 0 0 1-.295-.326V9.155c0-.179.146-.326.326-.326l6.658-.015h.03c.177 0 .322.147.322.329zm0-7.402v5.984a.325.325 0 0 1-.321.326H.429a.326.326 0 0 1-.325-.326V2.597c0-.162.122-.306.283-.325L7.08 1.42a.326.326 0 0 1 .394.321zm8.202 6.31h-7.11a.326.326 0 0 1-.326-.326V1.571h.004a.33.33 0 0 1 .28-.326l7.083-.937a.327.327 0 0 1 .394.321v7.096a.326.326 0 0 1-.325.326z"/></svg><svg width="14" height="14" fill="none" viewBox="0 0 14 14" id="search" x="32" y="35" xmlns="http://www.w3.org/2000/svg"><path fill-rule="evenodd" clip-rule="evenodd" d="M1.545 1.566A5.25 5.25 0 0 1 5.202.001a5.244 5.244 0 0 1 3.81 1.565C10.81 3.39 11.044 6.24 9.62 8.35l3.924 3.972a.995.995 0 0 1 0 1.392.967.967 0 0 1-1.374 0L8.245 9.74a5.225 5.225 0 0 1-6.7-.615c-2.06-2.085-2.06-5.474 0-7.559zM7.686 2.91A3.382 3.382 0 0 0 5.328 1.9a3.381 3.381 0 0 0-2.456 1.01 3.471 3.471 0 0 0 0 4.873 3.371 3.371 0 0 0 4.814 0 3.472 3.472 0 0 0 0-4.873z" fill="#000"/></svg></svg>