<svg xmlns="http://www.w3.org/2000/svg" width="16" height="18" viewBox="0 0 16 18">
    <path fill="#AD0256" fill-rule="nonzero" d="M11.193 0C9.168.676 7.59 1.354 7.816 4.286 9.84 3.835 11.643 2.707 11.193 0zm-6.43 4.071C2.816 4.071 0 5.786 0 9c0 4.5 3.032 9 4.764 9 1.3 0 2.382-.857 3.248-.857.866 0 1.732.857 3.032.857 1.732 0 3.68-2.571 4.114-4.929-1.516-1.071-2.599-1.714-2.599-3.642 0-1.286 1.083-2.572 2.382-3.643-.65-.857-1.949-1.715-3.248-1.715-1.299 0-2.696 1.017-3.681 1.072-.866 0-1.949-1.072-3.248-1.072z"/>
</svg>
