<svg xmlns="http://www.w3.org/2000/svg" width="16" height="17" viewBox="0 0 16 17">
    <path fill="#AD0256" fill-rule="nonzero" d="M16.001 9.155v7.215c0 .016-.003.027-.003.043a.325.325 0 0 1-.364.283l-7.084-.95a.326.326 0 0 1-.31-.325V9.147h.004c0-.182.146-.33.322-.33l7.083.012h.027c.18 0 .325.147.325.326zm-8.527-.012v6.143a.325.325 0 0 1-.363.283l-6.678-.84a.327.327 0 0 1-.295-.326V9.155c0-.179.146-.326.326-.326l6.658-.015h.03c.177 0 .322.147.322.329zm0-7.402v5.984a.325.325 0 0 1-.321.326H.429a.326.326 0 0 1-.325-.326V2.597c0-.162.122-.306.283-.325L7.08 1.42a.326.326 0 0 1 .394.321zm8.202 6.31h-7.11a.326.326 0 0 1-.326-.326V1.571h.004c0-.163.119-.302.28-.326l7.083-.937a.327.327 0 0 1 .394.321v7.096a.326.326 0 0 1-.325.326z"/>
</svg>
