<svg width="14" height="14" viewBox="0 0 14 14" fill="none" xmlns="http://www.w3.org/2000/svg">
<path fill-rule="evenodd" clip-rule="evenodd" d="M1.54493 1.56609C2.51646 0.582398 3.82826 0.0211715 5.20152 0.000663227L5.20162 0.000575727C6.62893 -0.0206168 8.00354 0.544038 9.01221 1.566C10.8101 3.38985 11.0444 6.24043 9.61985 8.35005L13.5438 12.3224C13.9219 12.7045 13.9219 13.3314 13.5438 13.7135C13.1664 14.0956 12.548 14.0956 12.1699 13.7135L8.24522 9.73976C6.16164 11.1808 3.34695 10.9443 1.54493 9.12522C-0.514975 7.04027 -0.514975 3.65104 1.54493 1.56609ZM7.68615 2.90874C7.05961 2.27437 6.21425 1.91275 5.32845 1.89976H5.32862C4.40835 1.88608 3.52255 2.24976 2.87171 2.90874C1.53963 4.25677 1.53963 6.4341 2.87171 7.78214C4.20309 9.13019 6.35408 9.13019 7.68615 7.78214C9.01755 6.43412 9.01755 4.25679 7.68615 2.90874Z" fill="black"/>
</svg>
