<svg version="1.1" xmlns="http://www.w3.org/2000/svg" xmlns:xlink="http://www.w3.org/1999/xlink" width="224" height="30" viewBox="0 0 224 30" enable-background="new 0 0 224 30" xml:space="preserve">
<g>
	<path fill="#FFFFFF" d="M72.6,1.4h-1.7c-0.8,0-1.4,0.6-1.4,1.4v21.9h-6.9c-4.3,0-6-0.3-6-7.1V2.8c0-0.8-0.6-1.4-1.4-1.4h-1.6
		C52.7,1.4,52,2,52,2.8v14.8C52,27.3,55.6,29,62.9,29c2.7,0,6.3,0,9.7-0.5l0.1,0c0.9-0.2,1.3-0.7,1.3-1.5V2.8
		C74,2,73.5,1.4,72.6,1.4 M92.5,1.4l-0.1,0c-1-0.2-3.6-0.4-5-0.4c-4.7,0-7.1,2-7.1,5.7v20.6c0,0.8,0.6,1.4,1.4,1.4h1.7
		c0.8,0,1.4-0.6,1.4-1.4V7.1c0-0.9,0.2-1.7,3-1.7l4.1,0c0.4,0,0.8-0.1,1.1-0.3c0.3-0.3,0.5-0.7,0.5-1.1v-1
		C93.6,2.2,93.2,1.6,92.5,1.4"/>
	<g transform="translate(95.309 1.015)">
		<defs>
			<filter id="Adobe_OpacityMaskFilter" filterUnits="userSpaceOnUse" x="0" y="0" width="21.7" height="28">
				<feColorMatrix  type="matrix" values="1 0 0 0 0  0 1 0 0 0  0 0 1 0 0  0 0 0 1 0"/>
			</filter>
		</defs>
		<mask maskUnits="userSpaceOnUse" x="0" y="0" width="21.7" height="28" id="b_1_">
			<g filter="url(#Adobe_OpacityMaskFilter)">
				<path id="a_1_" fill="#FFFFFF" d="M0,0h21.7v28H0V0z"/>
			</g>
		</mask>
		<path mask="url(#b_1_)" fill="#FFFFFF" d="M11,0C6.2,0,3.5,0.9,2,3.1C0.3,5.4,0,8.9,0,14c0,9.9,1.5,14,11,14c1.1,0,5,0,7.3-0.3
			c0.9-0.1,1.3-0.8,1.3-1.4v-1.1c0-0.9-0.6-1.5-1.5-1.5H11c-5.3,0-6.3-1.3-6.4-8.4v-2.3c0-7.3,1-8.6,6.4-8.6c5,0,6,1.1,6.1,7.6H9.2
			v4.4h10.4c2.1,0,2.1-1.4,2.1-1.9V13C21.5,2.9,19.1,0,11,0"/>
	</g>
	<path fill="#75BB43" d="M46.9,2c-0.2-0.5-0.7-0.7-1.2-0.7h-2.1c-0.6,0-1.1,0.3-1.3,0.7l-3.2,4.6l2.8,3.8l4.8-6.9
		C47.2,2.8,47,2.3,46.9,2"/>
	<path fill="#089BD8" d="M30.3,2L30.3,2c-0.5-0.6-1.1-0.6-1.3-0.6h-2.1c-0.5,0-1,0.2-1.2,0.7c-0.2,0.4-0.2,1,0.1,1.5l7.7,10.7
		l-8.9,12.4c-0.3,0.5-0.4,1-0.1,1.4c0.2,0.4,0.7,0.7,1.2,0.7h2.1c0.5,0,1-0.3,1.3-0.7l10-13.7L30.3,2z"/>
	<path fill="#EB2385" d="M48,27l-5.4-7.4l-2.4,3.3l4.3,5.7l0.1,0c0.2,0.1,0.4,0.1,0.5,0.1H47c0.4,0,0.8-0.2,1-0.5
		C48.2,27.8,48.2,27.4,48,27"/>
	<g transform="translate(0 1)">
		<defs>
			<filter id="Adobe_OpacityMaskFilter_1_" filterUnits="userSpaceOnUse" x="0" y="0" width="21" height="28">
				<feColorMatrix  type="matrix" values="1 0 0 0 0  0 1 0 0 0  0 0 1 0 0  0 0 0 1 0"/>
			</filter>
		</defs>
		<mask maskUnits="userSpaceOnUse" x="0" y="0" width="21" height="28" id="d_1_">
			<g filter="url(#Adobe_OpacityMaskFilter_1_)">
				<path id="c_1_" fill="#FFFFFF" d="M0,0h21v28H0V0z"/>
			</g>
		</mask>
		<path mask="url(#d_1_)" fill="#FFFFFF" d="M16.4,16.1v7.2c-2.1,0.3-5.3,0.4-6.4,0.4c-4.9,0-5.4-1.3-5.4-4.2c0-2.6,1-3.5,4.1-3.5
			H16.4z M9.7,0c-1.5,0-3.5,0-6.1,0.3l-0.1,0C2.8,0.6,2.4,1.1,2.4,1.8v1c0,0.9,0.6,1.4,1.4,1.4h5.9c4.7,0,6.7,1.3,6.7,4.4v3.1H8.6
			c-6.1,0-8.6,2.3-8.6,7.7C0,25.6,2.7,28,9.6,28c2.8,0,7.9-0.2,9.8-0.8c1.6-0.4,1.6-1.7,1.6-2.1V8.5C21,2.8,17.3,0,9.7,0L9.7,0z"/>
	</g>
	<g enable-background="new    ">
		<path fill="#089BD8" d="M151.1,0.8c0.2,0,0.3,0.1,0.3,0.3v1c0,0.2-0.1,0.3-0.3,0.3h-6.6c-3.8,0-5.9,0.6-7.2,2.7
			c-1.3,2-1.7,4.7-1.7,9.8c0,5,0.3,7.7,1.7,9.7c1.3,2,3.5,2.7,7.2,2.7h6.6c0.2,0,0.3,0.1,0.3,0.3v1c0,0.2-0.1,0.3-0.3,0.3
			c-1.6,0.1-3.8,0.2-6.6,0.2c-4.6,0-7.1-0.8-8.8-3c-1.7-2.3-2.2-5.5-2.2-11.2c0-4.6,0.3-7.4,1.3-9.7c1.6-3.5,4.3-4.4,9.7-4.6
			C147.3,0.7,149.5,0.7,151.1,0.8z"/>
		<path fill="#089BD8" d="M157.4,0.8c0.3,0,0.4,0.1,0.4,0.3v27.5c0,0.2-0.1,0.3-0.4,0.3h-1.3c-0.2,0-0.3-0.1-0.3-0.3V1.2
			c0-0.2,0.1-0.3,0.3-0.3H157.4z"/>
		<path fill="#089BD8" d="M177.9,10.5c1.1,1.4,1.6,4.1,1.6,8.3c0,4.2-0.5,7-1.6,8.4c-1.1,1.4-3.3,2.1-6.6,2.1s-5.5-0.7-6.6-2.1
			c-1.1-1.4-1.6-4.2-1.6-8.4c0-4.1,0.5-6.9,1.6-8.3c1.1-1.4,3.3-2.1,6.6-2.1S176.8,9.1,177.9,10.5z M166.3,11.9
			c-0.8,1.1-1.1,3.4-1.1,6.8c0,3.5,0.4,5.8,1.1,6.9c0.8,1.1,2.4,1.7,5,1.7s4.2-0.6,5-1.7c0.8-1.1,1.2-3.5,1.2-6.9
			c0-3.5-0.4-5.7-1.2-6.8c-0.8-1.1-2.4-1.7-5-1.7S167.1,10.8,166.3,11.9z"/>
		<path fill="#089BD8" d="M200.2,8.7c0.2,0,0.3,0.1,0.3,0.3v19.4c0,0.2-0.2,0.3-0.4,0.4c-1.8,0.3-4.4,0.4-7.7,0.4
			c-3.1,0-4.6-0.3-6-1.4c-1.4-1.2-1.9-3.3-1.9-7V9c0-0.2,0.1-0.3,0.4-0.3h1.3c0.2,0,0.3,0.1,0.3,0.3v11.9c0,2.9,0.3,4.6,1.4,5.5
			c1.1,0.9,2.1,1,4.3,1h6.3V9c0-0.2,0.1-0.3,0.3-0.3H200.2z"/>
		<path fill="#089BD8" d="M221.5,0.8c0.3,0,0.4,0.1,0.4,0.4V28c0,0.3-0.2,0.5-0.5,0.6c-2.6,0.4-5.1,0.6-7.6,0.6
			c-3.5,0-5.3-0.4-6.5-2.1c-0.6-0.9-0.9-1.9-1.1-3.2c-0.2-1.3-0.3-3-0.3-5.3c0-3.5,0.2-5.5,0.8-7.1c1.1-2.5,3.2-3,7.7-3.1
			c1.6,0,3.5,0.1,5.4,0.2V1.2c0-0.3,0.1-0.4,0.3-0.4H221.5z M219.8,10.2h-5.4c-2.9,0-4.5,0.4-5.4,1.6c-0.3,0.3-0.5,0.9-0.7,1.6
			c-0.3,1.4-0.4,2.7-0.4,5.2c0,3.8,0.1,5.5,1,7c0.9,1.4,2.2,1.7,4.9,1.7c1.9,0,3.9-0.2,6-0.4V10.2z"/>
	</g>
</g>
</svg>
