<svg xmlns="http://www.w3.org/2000/svg" width="34" height="35" viewBox="0 0 34 35">
    <g fill="#EE1686" fill-rule="nonzero">
        <path d="M33.807 17.58h-4.134v-2.898a4.237 4.237 0 0 0-4.25-4.25h-7.34V7.148c1.815-.62 2.82-2.589 2.201-4.404C19.665.928 17.696-.076 15.88.542c-1.815.619-2.82 2.588-2.202 4.404a3.507 3.507 0 0 0 2.086 2.164v3.322h-7.34a4.237 4.237 0 0 0-4.25 4.25v2.898H.193v9.659h3.98v7.147h25.5V27.24h4.133v-9.66zM17 2.705c.657 0 1.16.502 1.16 1.159 0 .656-.503 1.159-1.16 1.159-.657 0-1.16-.503-1.16-1.16 0-.656.503-1.158 1.16-1.158zM2.511 24.92v-5.022h1.662v5.022H2.511zm9.776 7.148v-4.25h3.477v4.25h-3.477zm5.795 0v-4.25h3.477v4.25h-3.477zm9.273 0h-3.477V25.5H9.968v6.568H6.492V14.682c0-1.082.85-1.932 1.932-1.932h17c1.082 0 1.932.85 1.932 1.932v17.386zm4.134-7.148h-1.816v-5.022h1.816v5.022z"/>
        <path d="M12.364 15.84a3.463 3.463 0 0 0-3.478 3.478 3.463 3.463 0 0 0 3.478 3.477 3.463 3.463 0 0 0 3.477-3.477 3.463 3.463 0 0 0-3.477-3.477zm0 4.637c-.657 0-1.16-.502-1.16-1.159 0-.656.503-1.159 1.16-1.159.656 0 1.159.503 1.159 1.16 0 .656-.503 1.158-1.16 1.158zM21.636 15.84a3.463 3.463 0 0 0-3.477 3.478 3.463 3.463 0 0 0 3.477 3.477 3.463 3.463 0 0 0 3.478-3.477 3.463 3.463 0 0 0-3.478-3.477zm0 4.637c-.656 0-1.159-.502-1.159-1.159 0-.656.503-1.159 1.16-1.159.656 0 1.158.503 1.158 1.16 0 .656-.502 1.158-1.159 1.158z"/>
    </g>
</svg>
