<svg xmlns="http://www.w3.org/2000/svg" width="28" height="33" viewBox="0 0 28 33">
    <g fill="none" fill-rule="evenodd" stroke="#EE1686" stroke-width="1.651">
        <path d="M19.59 4.748l3.083.039c.165 0 .324.067.442.188a.643.643 0 0 1 .18.454v22.143a.641.641 0 0 1-.182.456.613.613 0 0 1-.447.186H5.333a.613.613 0 0 1-.446-.186.641.641 0 0 1-.182-.456v-3.155M19.59 8.573v15.855H8.41"/>
        <path d="M23.295 8.573h3.083c.34 0 .62.281.622.631v22.143a.65.65 0 0 1-.176.46.62.62 0 0 1-.446.193H9.044a.63.63 0 0 1-.624-.631v-3.155"/>
        <path d="M19.048 1H1.542A.549.549 0 0 0 1 1.554v22.32a.56.56 0 0 0 .159.391c.101.104.239.162.383.162h17.506a.535.535 0 0 0 .383-.162.56.56 0 0 0 .159-.391V1.554a.56.56 0 0 0-.159-.392.535.535 0 0 0-.383-.162z"/>
        <path stroke-linecap="round" stroke-linejoin="round" d="M5.511 6.536h6.993M5.511 9.676h6.993"/>
    </g>
</svg>
