<svg xmlns="http://www.w3.org/2000/svg" width="16" height="16" viewBox="0 0 16 16">
    <g fill="#3CCF8E" fill-rule="evenodd">
        <path d="M8.134.564C4.096.564.81 3.85.81 7.889c0 4.038 3.286 7.324 7.324 7.324 4.039 0 7.325-3.286 7.325-7.324 0-4.04-3.286-7.325-7.325-7.325zm0 13.467A6.15 6.15 0 0 1 1.99 7.89a6.151 6.151 0 0 1 6.144-6.145 6.151 6.151 0 0 1 6.143 6.145 6.15 6.15 0 0 1-6.143 6.142z"/>
        <path d="M10.469 5.553L7.05 8.973 5.8 7.72a.59.59 0 0 0-.834.835l1.668 1.67a.59.59 0 0 0 .835 0l3.835-3.838a.59.59 0 1 0-.834-.834z"/>
    </g>
</svg>
