<svg xmlns="http://www.w3.org/2000/svg" width="22" height="22" viewBox="0 0 22 22">
    <path fill-rule="nonzero" d="M20.335.476l-8.71 8.71c-.357.357-.922.357-1.249 0L1.666.476C1.308.12.742.12.415.476c-.356.357-.356.922 0 1.249l8.712 8.71c.356.357.356.923 0 1.25l-8.741 8.74c-.357.356-.357.921 0 1.248.356.356.922.356 1.248 0l8.711-8.712c.357-.356.922-.356 1.249 0l8.74 8.742c.356.356.922.356 1.248 0 .356-.357.356-.923 0-1.249l-8.68-8.741c-.357-.356-.357-.922 0-1.248l8.71-8.711c.357-.357.357-.923 0-1.249a.925.925 0 0 0-1.278-.029z"/>
</svg>
