<svg xmlns="http://www.w3.org/2000/svg" width="18" height="18" viewBox="0 0 18 18">
    <g fill="#3CCF8E" fill-rule="evenodd">
        <path d="M8.86.174C3.975.174 0 4.15 0 9.034c0 4.886 3.975 8.86 8.86 8.86s8.86-3.974 8.86-8.86c0-4.885-3.975-8.86-8.86-8.86zm0 16.291c-4.097 0-7.432-3.333-7.432-7.43 0-4.1 3.335-7.433 7.432-7.433 4.098 0 7.431 3.335 7.431 7.433 0 4.097-3.333 7.43-7.431 7.43z"/>
        <path d="M11.684 6.209L7.55 10.346 6.035 8.83a.714.714 0 0 0-1.008 1.01l2.017 2.019a.714.714 0 0 0 1.01 0l4.64-4.642c.28-.279.28-.73 0-1.01a.715.715 0 0 0-1.01 0z"/>
    </g>
</svg>
