<svg xmlns="http://www.w3.org/2000/svg" width="20" height="24" viewBox="0 0 20 24">
    <path fill="#3F3E3E" fill-rule="nonzero" d="M14.796 0c-2.657.888-4.728 1.776-4.432 5.625C13.02 5.033 15.386 3.553 14.796 0zM6.358 5.344C3.8 5.344.105 7.594.105 11.812c0 5.907 3.98 11.813 6.253 11.813 1.705 0 3.126-1.125 4.263-1.125s2.274 1.125 3.979 1.125c2.274 0 4.832-3.375 5.4-6.469-1.99-1.406-3.41-2.25-3.41-4.781 0-1.688 1.42-3.375 3.126-4.781-.853-1.125-2.558-2.25-4.263-2.25-1.706 0-3.54 1.335-4.832 1.406-1.137 0-2.558-1.406-4.263-1.406z"/>
</svg>
