<svg width="17" height="17" viewBox="0 0 17 17" fill="none" xmlns="http://www.w3.org/2000/svg">
    <path fill-rule="evenodd" clip-rule="evenodd" d="M8.5657 8.05072H15.676C15.8559 8.05072 16.0014 7.90353 16.0014 7.72537V0.629638C16.0014 0.447597 15.8559 0.300415 15.676 0.300415C15.653 0.300415 15.63 0.304288 15.607 0.308161L8.52358 1.24548C8.36277 1.26872 8.24407 1.40815 8.24407 1.57083H8.24024V7.72537C8.24024 7.90353 8.38574 8.05072 8.5657 8.05072ZM7.47446 1.74125V7.72537C7.47446 7.90353 7.32897 8.05072 7.15284 8.05072H0.429292C0.249334 8.05072 0.103836 7.90353 0.103836 7.72537V2.59723C0.103836 2.43456 0.226361 2.29125 0.387174 2.27188L7.08009 1.41977C7.10306 1.4159 7.12603 1.41203 7.15284 1.41203C7.32897 1.41203 7.47446 1.55921 7.47446 1.74125ZM7.47446 15.2433V9.14296C7.47446 8.96092 7.32897 8.81374 7.15284 8.81374H7.12221L0.463752 8.82923C0.283794 8.82923 0.138296 8.97641 0.138296 9.15458V14.4028C0.138296 14.5732 0.268479 14.7126 0.433121 14.7281L7.11072 15.5686C7.29068 15.5919 7.45149 15.464 7.47446 15.2859V15.2433ZM16.0014 16.3704V9.15458C16.0014 8.97641 15.8559 8.82923 15.676 8.82923H15.6492L8.5657 8.81761C8.38957 8.81761 8.24407 8.96479 8.24407 9.14684H8.24024V15.4214C8.24024 15.5957 8.37808 15.739 8.55038 15.7468L15.6338 16.6957C15.8138 16.719 15.9746 16.5912 15.9976 16.413C15.9976 16.4052 15.9985 16.3985 15.9995 16.3917C16.0005 16.3849 16.0014 16.3781 16.0014 16.3704Z" fill="#AD0256"/>
</svg>
