<svg xmlns="http://www.w3.org/2000/svg" width="20" height="20" viewBox="0 0 20 20">
    <path fill-rule="nonzero" d="M15.625 0H4.375A4.376 4.376 0 0 0 0 4.375v11.25A4.376 4.376 0 0 0 4.375 20h11.25A4.376 4.376 0 0 0 20 15.625V4.375A4.376 4.376 0 0 0 15.625 0zM8.897 13.845a1.248 1.248 0 0 1 1.633 1.633 1.25 1.25 0 1 1-1.633-1.633zM10 10v2.5H8.75V10c0-.69.56-1.25 1.25-1.25h1.25a1.875 1.875 0 0 0 0-3.75h-2.5c-1.035 0-1.875.84-1.875 1.875h-1.25c0-.829.329-1.623.916-2.21A3.121 3.121 0 0 1 8.75 3.75h2.5a3.124 3.124 0 0 1 2.706 4.687A3.124 3.124 0 0 1 11.25 10H10z"/>
</svg>
