<svg xmlns="http://www.w3.org/2000/svg" xmlns:xlink="http://www.w3.org/1999/xlink" width="30" height="25" viewBox="0 0 30 25">
    <g fill-rule="evenodd">
        <path d="M27.806 20h-.292v-.589h.37c.192 0 .41.031.41.28 0 .285-.22.308-.488.308zm.29.174c.295-.036.45-.198.45-.47 0-.33-.202-.49-.617-.49h-.665v1.74h.25v-.758h.31l.006.01.48.748h.268l-.515-.775.033-.005z"/>
        <g>
            <path d="M27.834 21.517c-.79 0-1.412-.623-1.412-1.43 0-.809.621-1.432 1.412-1.432.793 0 1.413.623 1.413 1.431s-.62 1.43-1.413 1.43zm0-3.077c-.928 0-1.656.723-1.656 1.646 0 .924.728 1.647 1.656 1.647.928 0 1.656-.723 1.656-1.647 0-.923-.728-1.646-1.656-1.646z"/>
            <path d="M21.403 21.303h-3.725V15.5c0-1.384-.024-3.163-1.936-3.163-1.939 0-2.234 1.507-2.234 3.064v5.9H9.787V9.373h3.57v1.631h.052c.497-.938 1.712-1.927 3.524-1.927 3.773 0 4.47 2.47 4.47 5.684v6.543zM5.587 7.743a2.154 2.154 0 0 1-2.161-2.151c0-1.187.964-2.15 2.161-2.15 1.192 0 2.159.963 2.159 2.15 0 1.187-.967 2.15-2.159 2.15zm-1.866 13.56h3.73V9.373H3.72v11.93zM23.258 0H1.852C.83 0 0 .807 0 1.803v21.393C0 24.192.83 25 1.852 25h21.406c1.024 0 1.858-.808 1.858-1.804V1.803C25.116.807 24.282 0 23.258 0z"/>
        </g>
    </g>
</svg>
