<svg width="25" height="25" viewBox="0 0 25 25" fill="none" xmlns="http://www.w3.org/2000/svg">
<path fill-rule="evenodd" clip-rule="evenodd" d="M12.4961 0.00787354C9.10233 0.00787354 8.67679 0.0222585 7.34395 0.0830719C6.01389 0.143737 5.10551 0.354997 4.31066 0.663925C3.48894 0.983221 2.79206 1.4105 2.09732 2.1052C1.40263 2.79994 0.975347 3.49681 0.656052 4.31854C0.347123 5.11338 0.135863 6.02176 0.0751984 7.35182C0.0143849 8.68466 0 9.1102 0 12.504C0 15.8977 0.0143849 16.3232 0.0751984 17.656C0.135863 18.9861 0.347123 19.8945 0.656052 20.6893C0.975347 21.511 1.40263 22.2079 2.09732 22.9027C2.79206 23.5974 3.48894 24.0246 4.31066 24.344C5.10551 24.6529 6.01389 24.8641 7.34395 24.9248C8.67679 24.9856 9.10233 25 12.4961 25C15.8898 25 16.3153 24.9856 17.6482 24.9248C18.9782 24.8641 19.8866 24.6529 20.6814 24.344C21.5032 24.0246 22.2001 23.5974 22.8948 22.9027C23.5895 22.2079 24.0168 21.511 24.3361 20.6893C24.645 19.8945 24.8562 18.9861 24.9169 17.656C24.9777 16.3232 24.9921 15.8977 24.9921 12.504C24.9921 9.1102 24.9777 8.68466 24.9169 7.35182C24.8562 6.02176 24.645 5.11338 24.3361 4.31854C24.0168 3.49681 23.5895 2.79994 22.8948 2.1052C22.2001 1.4105 21.5032 0.983221 20.6814 0.663925C19.8866 0.354997 18.9782 0.143737 17.6482 0.0830719C16.3153 0.0222585 15.8898 0.00787354 12.4961 0.00787354ZM12.4961 2.25941C15.8326 2.25941 16.2279 2.27216 17.5455 2.33228C18.7639 2.38783 19.4255 2.59141 19.8659 2.76254C20.4492 2.98922 20.8654 3.26001 21.3027 3.69731C21.74 4.13456 22.0108 4.55083 22.2374 5.13411C22.4086 5.57444 22.6122 6.2361 22.6677 7.45445C22.7278 8.77211 22.7406 9.16735 22.7406 12.504C22.7406 15.8405 22.7278 16.2358 22.6677 17.5534C22.6122 18.7718 22.4086 19.4334 22.2374 19.8737C22.0108 20.457 21.74 20.8733 21.3027 21.3106C20.8654 21.7479 20.4492 22.0186 19.8659 22.2453C19.4255 22.4165 18.7639 22.62 17.5455 22.6756C16.2281 22.7357 15.8329 22.7484 12.4961 22.7484C9.15923 22.7484 8.76409 22.7357 7.44658 22.6756C6.22822 22.62 5.56657 22.4165 5.12624 22.2453C4.54296 22.0186 4.12669 21.7479 3.68943 21.3106C3.25218 20.8733 2.98135 20.457 2.75466 19.8737C2.58353 19.4334 2.37996 18.7718 2.3244 17.5534C2.26429 16.2358 2.25154 15.8405 2.25154 12.504C2.25154 9.16735 2.26429 8.77211 2.3244 7.45445C2.37996 6.2361 2.58353 5.57444 2.75466 5.13411C2.98135 4.55083 3.25213 4.13456 3.68943 3.69731C4.12669 3.26001 4.54296 2.98922 5.12624 2.76254C5.56657 2.59141 6.22822 2.38783 7.44658 2.33228C8.76424 2.27216 9.15947 2.25941 12.4961 2.25941Z"/>
<path fill-rule="evenodd" clip-rule="evenodd" d="M12.4961 16.6693C10.1956 16.6693 8.33076 14.8044 8.33076 12.504C8.33076 10.2035 10.1956 8.33857 12.4961 8.33857C14.7966 8.33857 16.6615 10.2035 16.6615 12.504C16.6615 14.8044 14.7966 16.6693 12.4961 16.6693ZM12.4961 6.08704C8.95214 6.08704 6.07922 8.95995 6.07922 12.504C6.07922 16.0479 8.95214 18.9208 12.4961 18.9208C16.0401 18.9208 18.913 16.0479 18.913 12.504C18.913 8.95995 16.0401 6.08704 12.4961 6.08704Z"/>
<path fill-rule="evenodd" clip-rule="evenodd" d="M20.666 5.83351C20.666 6.66168 19.9947 7.33301 19.1665 7.33301C18.3384 7.33301 17.667 6.66168 17.667 5.83351C17.667 5.00533 18.3384 4.33395 19.1665 4.33395C19.9947 4.33395 20.666 5.00533 20.666 5.83351Z"/>
</svg>
