<?xml version="1.0" encoding="UTF-8"?>
<svg width="3261px" height="803px" viewBox="0 0 3261 803" version="1.1" xmlns="http://www.w3.org/2000/svg" xmlns:xlink="http://www.w3.org/1999/xlink">
    <defs>
        <rect id="path-1" x="0" y="0" width="3261" height="803"></rect>
        <linearGradient x1="50%" y1="0%" x2="50%" y2="100%" id="linearGradient-3">
            <stop stop-color="#353799" offset="0%"></stop>
            <stop stop-color="#15164A" offset="100%"></stop>
        </linearGradient>
        <rect id="path-4" x="0" y="0" width="3166" height="803"></rect>
        <rect id="path-6" x="0" y="0" width="3261" height="803"></rect>
        <linearGradient x1="10.4040898%" y1="61.7145545%" x2="82.4579773%" y2="41.8959521%" id="linearGradient-8">
            <stop stop-color="#23256D" offset="0%"></stop>
            <stop stop-color="#3D7DC1" offset="37%"></stop>
            <stop stop-color="#5371B7" offset="59%"></stop>
            <stop stop-color="#606AB1" offset="81%"></stop>
            <stop stop-color="#6567AF" offset="100%"></stop>
        </linearGradient>
        <linearGradient x1="12.6563614%" y1="67.065217%" x2="86.2758233%" y2="37.5119229%" id="linearGradient-9">
            <stop stop-color="#6764AD" offset="0%"></stop>
            <stop stop-color="#6267AF" offset="18%"></stop>
            <stop stop-color="#6168B0" offset="65%"></stop>
            <stop stop-color="#1652D1" offset="100%"></stop>
        </linearGradient>
        <linearGradient x1="23.9964613%" y1="64.2419593%" x2="65.9786%" y2="39.8917967%" id="linearGradient-10">
            <stop stop-color="#089BD8" stop-opacity="0" offset="0%"></stop>
            <stop stop-color="#089BD8" stop-opacity="0" offset="0%"></stop>
            <stop stop-color="#0D9DD9" stop-opacity="0.01" offset="26%"></stop>
            <stop stop-color="#1EA4DB" stop-opacity="0.04" offset="44%"></stop>
            <stop stop-color="#3BB0E0" stop-opacity="0.1" offset="58%"></stop>
            <stop stop-color="#64C0E6" stop-opacity="0.19" offset="71%"></stop>
            <stop stop-color="#99D6EF" stop-opacity="0.29" offset="83%"></stop>
            <stop stop-color="#D8EFF9" stop-opacity="0.42" offset="94%"></stop>
            <stop stop-color="#FFFFFF" stop-opacity="0.5" offset="100%"></stop>
        </linearGradient>
    </defs>
    <g id="cloud_header_back-copy" stroke="none" stroke-width="1" fill="none" fill-rule="evenodd">
        <g id="Group-21">
            <g id="Header-Section">
                <mask id="mask-2" fill="white">
                    <use xlink:href="#path-1"></use>
                </mask>
                <use id="Rectangle" fill="#FFFFFF" xlink:href="#path-1"></use>
                <rect id="main-back-gradient" fill="url(#linearGradient-3)" mask="url(#mask-2)" x="0" y="0" width="3261" height="1011"></rect>
            </g>
        </g>
        <g id="Group-21" transform="translate(95.000000, 0.000000)">
            <g id="Header-Section">
                <mask id="mask-5" fill="white">
                    <use xlink:href="#path-4"></use>
                </mask>
                <use id="Rectangle" fill="#FFFFFF" xlink:href="#path-4"></use>
                <rect id="main-back-gradient" fill="url(#linearGradient-3)" mask="url(#mask-5)" x="-18" y="0" width="3261" height="1011"></rect>
                <g id="Group-21" mask="url(#mask-5)">
                    <g transform="translate(-95.000000, 0.000000)" id="Header-Section">
                        <g>
                            <mask id="mask-7" fill="white">
                                <use xlink:href="#path-6"></use>
                            </mask>
                            <use id="Rectangle" fill="#FFFFFF" xlink:href="#path-6"></use>
                            <rect id="main-back-gradient" fill="url(#linearGradient-3)" mask="url(#mask-7)" x="0" y="0" width="3261" height="1011"></rect>
                        </g>
                    </g>
                </g>
                <g id="Asset-1" opacity="0.550000012" mask="url(#mask-5)">
                    <g transform="translate(0.000000, -196.000000)">
                        <path d="M1466.19369,493.809858 C1096.17783,518.855293 724.494448,488.585605 363.412844,404 C362.306745,408.791497 361.077746,413.582994 359.971647,418.251633 L353.335052,420.094516 C345.961058,422.183118 338.464164,424.026001 331.213069,426.483179 C323.961975,428.940357 316.465081,432.01183 309.213986,434.960444 C301.962892,437.909057 294.343098,440.611953 287.092004,443.806285 C279.840909,447.000616 272.344015,451.177819 264.970021,454.986445 C257.596027,458.795071 250.099132,462.726556 242.848038,467.272335 C235.596944,471.818115 228.10005,476.486753 220.848955,481.27825 C213.597861,486.069747 205.978067,491.598398 198.726972,497.00419 C191.475878,502.409982 183.733184,508.307209 176.60499,514.327295 C169.476795,520.347381 161.857001,527.841774 154.605907,534.844732 C147.354812,541.847689 139.612118,549.464941 132.483924,557.205052 C125.355729,564.945163 117.367236,573.17671 110.607741,582.022551 C103.848246,590.868392 95.3681528,602.048552 88.3628582,612.860136 C81.3575636,623.671719 73.7377696,636.080468 66.2408754,648.366359 C58.2523816,662.617991 50.8783874,677.36106 44.1188926,692.472705 C35.5875583,711.536546 28.240582,731.10827 22.1198097,751.076402 C-7.37326991,849.161594 -7.37326991,953.749804 22.1198097,1051.835 C28.240582,1071.80313 35.5875583,1091.37485 44.1188926,1110.43869 C50.8783874,1125.55034 58.2523816,1140.17055 66.2408754,1154.54504 C73.1232701,1166.83093 80.4972643,1178.74824 88.3628582,1190.29698 C95.3681528,1200.73999 102.619247,1211.06014 110.361941,1220.88885 C118.104635,1230.71756 124.98703,1238.08909 132.483924,1246.32064 C139.980818,1254.55219 146.986113,1261.55514 154.605907,1268.80382 C162.225701,1276.0525 168.985196,1282.80974 176.60499,1289.32126 C184.224784,1295.83278 191.230078,1301.60715 198.726972,1306.5215 C206.223867,1311.43586 213.352061,1317.33309 220.848955,1322.24744 C228.345849,1327.1618 235.351144,1331.9533 242.848038,1336.37622 C250.344932,1340.79914 257.596027,1344.4849 264.970021,1348.66211 C272.344015,1352.83931 279.595109,1356.27936 287.092004,1359.71941 C294.588898,1363.15946 301.717092,1365.73949 309.213986,1368.68811 C316.710881,1371.63672 323.716175,1374.70819 331.213069,1377.16537 C338.709964,1379.62255 345.961058,1381.46543 353.335052,1383.55404 C360.709046,1385.64264 367.960141,1387.73124 375.457035,1389.45126 C382.953929,1391.17129 390.082124,1392.27702 397.456118,1393.62847 C404.830112,1394.97991 412.081206,1396.2085 419.578101,1397.06852 C427.074995,1397.92853 434.203189,1398.54282 441.700083,1399.15712 C449.196978,1399.77141 456.325172,1400.13999 463.699166,1400.26285 C468.000663,1400.26285 472.17926,1401 475.989157,1401 L1745.17647,1401 C1752.55046,1401 1759.92446,1400.13999 1767.17555,1399.77141 C1774.42665,1399.40283 1782.04644,1399.77141 1789.29754,1398.66568 C1796.54863,1397.55995 1804.04552,1396.69994 1811.41952,1395.59421 C1818.79351,1394.48848 1826.16751,1393.50561 1833.5415,1392.0313 C1840.9155,1390.55699 1848.28949,1388.71411 1855.54058,1386.99409 C1862.79168,1385.27406 1870.41147,1383.18546 1877.66257,1380.974 C1884.91366,1378.76254 1892.41056,1376.1825 1899.78455,1373.60246 C1907.15854,1371.02243 1914.53254,1368.07381 1921.78363,1365.1252 C1929.03473,1362.17659 1936.65452,1358.49082 1943.90562,1354.92791 C1951.15671,1351.365 1958.7765,1347.80209 1966.0276,1343.87061 C1973.27869,1339.93913 1980.77559,1335.14763 1988.02668,1330.60185 C1995.27778,1326.05607 2003.02047,1321.51029 2010.14866,1316.47307 C2013.22116,1314.38447 2016.17076,1311.9273 2019.12036,1309.59298 L2032.27065,1299.39569 C2039.76754,1293.49846 2047.14153,1287.1098 2054.26973,1281.08971 C2061.39792,1275.06962 2069.26352,1267.32951 2076.39171,1260.08084 C2083.51991,1252.83216 2086.8382,1248.65496 2092,1242.88059 C2061.07432,1148.0083 2020.20861,1056.66767 1970.08329,970.379544 C1853.81999,774.419593 1648.08555,641.731978 1466.19369,493.809858 Z" id="Path" fill="url(#linearGradient-8)" fill-rule="nonzero"></path>
                        <path d="M2207.96344,788.293785 C2202.52614,763.197728 2195.13379,738.565189 2185.85402,714.621469 C2179.43067,697.619728 2172.09106,680.978164 2163.86743,664.769868 C2157.11177,651.508851 2149.61913,638.738983 2141.758,626.337476 C2133.89688,613.93597 2127.38688,604.849718 2119.64858,594.535593 C2111.91028,584.221469 2105.27746,576.117514 2097.66199,567.154049 C2090.04652,558.190584 2083.29087,550.700565 2075.55257,542.59661 C2067.81427,534.492655 2061.05861,528.353296 2053.44315,521.6 C2045.82768,514.846704 2038.94919,509.321281 2031.45655,503.304708 C2023.96392,497.288136 2016.9626,491.025989 2009.34713,486.114501 C2001.73167,481.203013 1994.73035,476.659887 1987.23771,472.116761 C1979.74507,467.573635 1972.74376,463.030508 1965.25112,458.855744 C1957.75848,454.680979 1950.5115,451.242938 1943.1417,447.682109 C1935.77189,444.121281 1928.52491,440.806026 1921.03227,437.613559 C1913.53964,434.421092 1906.41549,431.842561 1899.04568,429.141243 C1891.67588,426.439925 1884.4289,423.984181 1876.93626,421.774011 C1869.44362,419.563842 1862.31948,417.599247 1854.82684,415.757439 C1847.3342,413.915631 1840.21005,412.073823 1832.84025,410.600377 C1825.47044,409.12693 1818.10063,408.26742 1810.73083,407.162335 C1803.36102,406.05725 1796.11404,404.829379 1788.6214,404.092655 C1781.12877,403.355932 1773.88179,403.233145 1766.51198,402.864783 L1644.6645,402.864783 C1644.6645,402.864783 1644.6645,402.12806 1644.6645,401.882486 C1644.43034,391.077324 1643.56908,380.294852 1642.08507,369.589454 C1640.85677,360.13484 1639.01432,350.9258 1636.9262,341.716761 C1635.32941,335.20904 1633.60979,328.824105 1631.64451,322.439171 C1629.67923,316.054237 1628.32809,312.370621 1626.48564,307.459134 C1624.64319,302.547646 1623.0464,298.986817 1621.20395,295.180414 L1616.04508,283.761205 L1610.76339,273.569868 C1609.1666,270.622976 1607.32414,267.553296 1605.60452,264.606403 C1603.8849,261.65951 1602.16528,258.467043 1600.32283,255.642938 C1598.48037,252.818832 1596.76075,250.73145 1595.16396,248.275706 L1589.88227,240.908475 L1584.7234,233.786817 C1583.00378,231.699435 1581.16133,229.73484 1579.44171,227.770245 L1574.28284,221.753672 C1572.44039,219.789077 1570.8436,217.578908 1569.00115,215.7371 L1563.84228,210.580038 L1558.56059,205.545763 L1553.40172,200.634275 L1548.61135,194.986064 L1543.32965,190.934087 L1538.17079,186.882109 L1533.01192,182.707345 L1527.73022,179.023729 C1526.0106,177.795857 1524.29098,176.813559 1522.44853,175.708475 L1517.28966,172.270433 L1512.00797,168.955179 L1506.8491,165.885499 C1505.12948,164.903202 1503.28703,164.166478 1501.69024,163.184181 L1496.40854,160.60565 L1491.12685,157.904331 C1489.40723,157.167608 1487.6876,156.062524 1485.96798,155.3258 L1480.68629,153.238418 L1475.52742,151.273823 L1470.24573,149.186441 L1465.08686,147.221846 C1463.36724,146.60791 1461.64762,145.871186 1459.80517,145.380038 C1457.96272,144.888889 1456.36592,144.520527 1454.6463,143.906591 L1449.36461,142.555932 L1444.20574,141.082486 L1438.92405,139.731827 L1433.76518,138.626742 L1428.48349,137.767232 L1423.32462,136.907721 L1418.04293,136.048211 L1412.88406,135.188701 L1407.60237,134.574765 L1402.4435,134.574765 L1397.16181,134.574765 L1392.00294,134.574765 L1386.72124,134.574765 L1381.56238,134.574765 L1376.28068,134.574765 L1371.12182,134.574765 L1365.84012,134.574765 L1360.68126,134.574765 C1358.96164,134.574765 1357.11919,134.574765 1355.39956,134.574765 L1350.2407,135.434275 L1344.959,136.293785 L1339.80014,137.153296 L1334.51844,138.012806 L1329.35958,138.872316 C1327.51713,138.872316 1325.92033,139.854614 1324.07788,140.345763 L1318.91902,141.696422 L1313.63732,143.047081 C1311.9177,143.661017 1310.19808,144.029379 1308.47846,144.520527 L1303.19676,146.116761 L1298.0379,148.081356 L1292.7562,150.168738 L1287.59734,152.133333 L1282.31564,154.097928 L1277.15678,156.553672 L1271.87508,159.254991 L1266.71622,161.833522 L1261.43452,164.53484 L1256.27566,167.358945 C1254.67886,168.218456 1253.2049,169.32354 1251.73094,170.183051 C1248.90585,167.113371 1246.44925,163.798117 1243.62415,160.851224 C1240.79906,157.904331 1236.62284,153.975141 1233.18359,150.5371 C1229.74435,147.099058 1226.18228,143.906591 1222.74303,140.591337 C1219.30379,137.276083 1215.86455,133.838041 1212.30247,130.645574 C1208.7404,127.453107 1205.42398,124.26064 1201.73908,121.19096 C1198.05418,118.121281 1194.86059,115.788324 1191.42135,112.964218 L1180.12098,105.596987 C1176.68174,102.895669 1173.36532,99.9487759 1169.68042,97.3702448 C1165.99552,94.7917137 1162.80193,92.2131827 1159.23986,89.880226 C1155.67779,87.5472693 1152.36137,85.459887 1148.7993,83.1269303 L1138.35874,76.4964218 C1134.91949,74.2862524 1131.48025,71.9532957 1127.91818,69.8659134 C1124.3561,67.7785311 1121.03969,65.5683616 1117.47762,63.6037665 C1113.91554,61.6391714 1110.4763,60.165725 1107.03706,58.3239171 L1096.5965,53.0440678 L1086.27877,47.6414313 C1082.83952,45.9224105 1079.40028,43.9578154 1075.83821,42.3615819 C1072.27613,40.7653484 1068.95972,39.6602637 1065.39765,38.1868173 C1061.83557,36.713371 1058.51916,35.6082863 1054.95709,34.1348399 L1045.00785,30.3284369 C1041.5686,28.9777778 1038.12936,27.5043315 1034.56729,26.2764595 C1031.00521,25.0485876 1027.6888,23.6979284 1024.12673,22.5928437 C1020.56465,21.4877589 1017.12541,20.7510358 1013.68616,19.7687382 L1003.2456,16.9446328 L992.805044,14.1205273 L981.873163,10.8052731 L971.309773,8.96346516 L960.992042,7.36723164 L950.551482,5.64821092 L940.110922,4.0519774 C936.671678,4.0519774 933.232435,2.70131827 929.670361,2.33295669 L919.229801,1.10508475 C915.790558,1.10508475 912.228484,1.10508475 908.789241,1.10508475 L898.34868,0 L887.90812,0 L877.46756,0 C875.010957,0 872.554355,0 870.097752,0 L867.026999,0 C863.587756,0 860.148512,0 856.586439,0 L846.145878,0 L836.196639,0.368361582 L825.756078,0.368361582 C822.316835,0.368361582 818.754761,0.368361582 815.315518,1.10508475 C811.876274,1.84180791 808.437031,2.33295669 804.874958,2.82410546 C801.312884,3.31525424 797.996471,3.92919021 794.434397,4.42033898 L783.993837,6.1393597 L773.553276,7.73559322 C770.114033,8.47231638 766.55196,8.84067797 763.112716,9.57740113 C759.673473,10.3141243 756.234229,11.6647834 752.672156,12.4015066 L742.231595,15.2256121 L731.791035,18.0497175 C728.351792,19.0320151 724.789718,19.7687382 721.350475,20.873823 L710.909914,24.06629 C707.347841,25.294162 704.031427,26.8903955 700.469354,28.1182674 L690.028794,32.0474576 L679.588233,36.099435 C676.14899,37.5728814 672.586916,38.6779661 669.147673,40.1514124 C665.708429,41.6248588 662.269186,43.3438795 658.707113,45.0629002 C655.145039,46.7819209 651.828626,48.6237288 648.266552,50.3427495 L637.825992,55.6225989 C634.386748,57.3416196 630.824675,58.9378531 627.385431,60.779661 L616.944871,66.5506591 C613.382798,68.6380414 610.066384,70.9709981 606.504311,73.1811676 L596.06375,79.8116761 C592.624507,82.0218456 589.062433,84.1092279 585.62319,86.4421846 C582.183947,88.7751412 578.621873,90.9853107 575.18263,93.4410546 C571.743386,95.8967985 568.304143,98.9664783 564.742069,101.545009 L553.687358,110.2629 C550.248115,112.964218 546.686041,115.54275 543.246798,118.366855 L532.806238,127.084746 C529.244164,130.277213 525.927751,133.838041 522.365677,137.030508 L511.925117,146.976271 C508.485873,150.414313 504.80097,153.483992 501.484557,156.922034 C498.168143,160.360075 494.48324,164.657627 491.043996,168.46403 C487.604753,172.270433 484.042679,176.445198 480.603436,180.74275 C477.164192,185.040301 473.479289,188.60113 470.162875,193.021469 C466.846462,197.441808 463.161558,201.73936 459.722315,206.282486 C456.283072,210.825612 452.720998,215.982674 449.281755,220.894162 C445.842511,225.80565 442.157608,230.59435 438.841194,235.505838 C435.524781,240.417326 431.839877,246.556685 428.400634,252.204896 C424.961391,257.853107 421.399317,264.483616 417.960074,270.131827 C414.52083,275.780038 410.713096,282.410546 407.519513,288.549906 C404.32593,294.689266 400.518196,303.652731 397.078953,311.265537 C393.63971,318.878343 389.831976,326.122787 386.638393,333.981168 C383.444809,341.839548 379.514245,353.627119 376.197832,363.450094 C372.881419,373.27307 368.828025,385.429002 365.757272,396.725424 C363.79199,403.724294 362.318028,410.845951 360.598407,417.967608 C358.878785,425.089266 357.159163,431.965348 355.439542,439.33258 C354.825391,442.40226 354.579731,445.594727 354.08841,448.664407 C341.97053,514.787633 341.97053,582.56152 354.08841,648.684746 C354.08841,651.754426 354.825391,654.946893 355.439542,658.016573 C358.264634,672.628249 361.949538,686.99435 365.880102,701.237665 C368.950855,712.288512 372.512929,723.093785 376.197832,733.899058 C379.514245,743.722034 382.707829,753.790584 386.638393,763.367985 C390.568956,772.945386 393.63971,778.593597 397.078953,786.083616 C397.45826,786.838454 397.786542,787.617852 398.061594,788.416573 C401.132347,795.292655 404.08027,802.168738 407.519513,808.799247 C410.958757,815.429755 414.52083,821.077966 417.960074,827.217326 L420.171016,831.023729 C422.873279,835.812429 425.575541,840.478343 428.400634,845.144256 C431.225727,849.810169 435.156291,856.317891 438.841194,861.843315 L442.280438,866.632015 L449.281755,876.454991 C452.720998,881.366478 456.037411,886.277966 459.722315,891.066667 L464.26703,896.960452 L470.162875,904.327684 C473.479289,908.502448 477.164192,912.308851 480.603436,916.606403 L486.376452,923.359699 L491.043996,928.639548 C494.48324,932.445951 497.922483,936.375141 501.484557,940.181544 C505.04663,943.987947 506.152101,944.601883 508.485873,946.812053 L511.925117,950.127307 L522.365677,960.07307 L530.472465,967.808663 L532.806238,970.018832 L543.246798,978.736723 L552.581887,985.981168 L553.687358,986.840678 L564.127919,995.06742 C567.689992,997.645951 571.006405,1000.71563 574.568479,1003.17137 L574.568479,1003.17137 C577.884892,1005.62712 581.446966,1007.7145 584.886209,1010.04746 C588.325453,1012.38041 591.887526,1014.4678 595.32677,1016.67797 L596.555071,1017.41469 C599.625824,1019.37928 602.696577,1021.46667 605.76733,1023.30847 C608.838083,1025.15028 612.645817,1027.8516 616.20789,1029.93898 L618.664493,1031.28964 L626.648451,1035.70998 C630.087694,1037.55179 633.649768,1039.14802 637.089011,1040.86704 C638.317312,1041.60377 639.545613,1042.09492 640.773915,1042.70885 L647.529571,1046.14689 C651.091645,1047.86591 654.408058,1049.83051 657.970132,1051.42674 L662.760507,1053.7597 L668.410692,1056.33823 C671.849936,1057.81168 675.412009,1058.91676 678.851252,1060.39021 L684.869928,1062.72316 L689.291813,1064.44218 L699.732373,1068.37137 L706.97935,1071.19548 L710.172934,1072.42335 L720.613494,1075.61582 L728.965942,1077.82599 L731.054054,1077.82599 L741.494615,1080.65009 L751.075364,1083.22863 L751.935175,1083.22863 C755.497249,1083.96535 758.813662,1085.19322 762.375735,1086.05273 C765.937809,1086.91224 769.377052,1087.15782 772.816296,1087.89454 L772.816296,1087.89454 L782.888366,1089.49077 L793.328926,1091.20979 L794.802888,1091.20979 L803.769486,1092.56045 C807.33156,1092.56045 810.647973,1093.91111 814.210047,1094.27947 L816.912309,1094.27947 L824.650607,1094.27947 L835.091168,1094.27947 L839.021731,1094.27947 L845.531728,1094.27947 L855.972288,1094.27947 L861.131153,1094.27947 C862.850775,1094.27947 864.570397,1094.27947 866.412849,1094.27947 L869.483602,1094.27947 L873.536996,1094.27947 L877.71322,1094.27947 L1747.47331,1094.27947 C1874.84815,1094.27947 1982.44734,1182.56347 2017.69958,1304 L2030.8424,1293.80866 C2038.33504,1287.91488 2045.70485,1281.52994 2052.829,1275.51337 C2059.95314,1269.4968 2067.81427,1261.76121 2074.93842,1254.51676 C2082.06256,1247.27232 2089.80086,1238.43164 2097.04784,1229.95932 C2104.29482,1221.48701 2112.03311,1212.03239 2119.03443,1202.57778 C2126.03575,1193.12316 2134.26537,1181.82674 2141.14385,1170.89868 C2148.02234,1159.97062 2156.49762,1146.34124 2163.25328,1132.46629 C2183.04962,1093.20603 2197.86295,1051.62769 2207.34929,1008.6968 C2207.34929,1006.97778 2208.2091,1005.38154 2208.57759,1003.66252 C2224.21122,931.104318 2223.792,856.007143 2207.34929,783.627872 L2207.96344,788.293785 Z" id="Path" fill="url(#linearGradient-9)" fill-rule="nonzero"></path>
                        <g id="Group" opacity="0.3" stroke-width="1" fill="none" fill-rule="evenodd" transform="translate(342.000000, 242.000000)">
                            <path d="M1551.16331,675.515413 L639.121094,675.515413 L634.697879,675.515413 L630.397532,675.515413 L627.325855,675.515413 C625.359982,675.515413 623.516976,675.515413 621.67397,675.515413 L616.390687,675.515413 L605.455518,675.515413 L598.574962,675.515413 L594.397482,675.515413 L583.462313,675.515413 L575.353087,675.515413 L572.527144,675.515413 C568.841133,675.515413 565.277988,674.164461 561.591976,673.79602 L552.254079,672.19944 L550.656807,672.19944 L539.721638,670.480046 C536.158493,670.480046 532.595348,669.497536 529.155071,668.760653 L529.155071,668.760653 L518.097035,663.356844 C514.288156,662.497147 510.847878,661.269009 507.161866,660.409312 L506.17893,660.409312 L496.10383,657.707408 L485.168661,654.759876 L483.079921,654.759876 L474.233493,652.426413 L463.298324,649.11044 L459.858046,647.759487 L452.363155,644.811955 C448.677143,643.583817 445.113998,642.110051 441.427986,640.636285 L436.759038,638.916891 L430.492818,636.460615 L419.803383,631.425248 C417.714643,630.565551 415.871637,629.58304 413.905764,628.60053 L408.868214,626.267067 C405.059335,624.547673 401.49619,622.582652 397.810179,620.740444 L390.19242,616.810402 L386.383541,614.84538 C382.820397,613.003173 379.011518,611.283779 375.448373,609.318758 C371.885228,607.353737 369.919355,606.248412 367.093412,604.774646 L364.513204,603.30088 C360.827192,601.213045 357.264047,598.633955 353.578035,596.423306 L343.994404,590.282614 L342.642866,589.422917 C338.956855,587.089454 335.270843,584.878805 331.707698,582.422529 C328.144553,579.966252 324.335674,577.755603 320.772529,575.299327 L320.772529,575.299327 C316.96365,572.597422 313.523372,569.527076 309.83736,566.702358 C306.151348,563.87764 302.465336,561.052922 298.779324,558.10539 L297.673521,557.245693 L287.844156,549.631236 C284.281011,546.56089 280.472132,543.613358 276.908987,540.420198 L274.574513,538.209549 L265.973818,529.981023 C262.287806,526.542235 258.601794,523.103448 255.038649,519.541847 L251.352637,516.103059 L244.103481,509.225485 C240.294602,505.295442 236.854324,501.119772 233.168312,496.944102 C231.448173,495.101894 229.850901,493.136873 228.253629,491.294665 L222.233143,484.294277 C218.547131,479.995793 214.738252,475.942936 211.297974,472.012894 L205.154621,464.275622 L200.239939,458.134931 C196.553927,453.099564 192.990782,447.818569 189.30477,442.783202 L181.932746,432.46684 C180.826942,430.747446 179.475405,429.150866 178.369601,427.431473 C174.560722,421.659223 170.997577,415.886973 167.434432,409.991909 C163.871287,404.096845 161.65968,400.166802 158.833738,395.131435 L156.499263,391.078579 C152.936119,384.692259 148.881505,378.797195 145.564095,371.919621 C142.246684,365.042046 138.929273,357.550402 135.73473,350.4272 L134.628926,348.093737 C130.942914,340.110838 127.011168,332.373567 123.693757,324.267854 C119.516277,314.19712 116.321733,303.63513 112.758588,293.318768 L112.758588,292.704699 C108.949709,281.405827 105.14083,270.106954 101.946287,258.43964 C97.8916736,243.579166 93.9599276,228.595879 91.011118,213.24415 C91.011118,210.05099 90.2739156,206.612203 89.6595803,203.419043 C83.4046851,168.805179 80.1978637,133.709808 80.0759493,98.5360308 C80.1789792,65.6076913 83.0146456,32.7446442 88.5537767,0.28496526 C87.0793719,2.7412419 85.4821001,5.07470471 83.8848283,7.53098135 C80.3216834,13.4260453 76.8814056,19.8123645 73.4411278,25.5846146 C70.00085,31.3568647 66.314838,37.8659978 62.9974273,43.8838756 C59.6800165,49.9017534 56.1168716,59.1127908 52.5537268,66.6044345 C48.9905819,74.0960783 45.30457,81.587722 42.1100263,89.3249934 C38.3011473,99.0272862 35.1066036,108.975207 31.6663258,118.923127 C28.226048,128.871047 24.417169,140.906803 21.2226253,152.082862 C19.3796193,159.08325 17.9052145,166.329266 16.0622086,173.452468 C14.2192026,180.575671 12.2533296,187.821687 10.7789248,195.31333 C10.7789248,198.383676 10.0417224,201.576836 9.42738706,204.647182 C-2.69413791,270.784752 -2.69413791,338.573343 9.42738706,404.710914 C10.0417224,407.78126 10.2874565,410.974419 10.7789248,414.044765 C13.6048673,428.659611 17.4137463,442.906016 21.2226253,457.15242 C24.2943019,468.328479 27.8574468,479.136096 31.5434587,489.943713 C31.5434587,489.943713 31.5434587,489.943713 31.5434587,489.943713 C34.9837365,499.76882 38.1782802,509.839554 41.9871592,519.419033 C45.7960382,528.998512 48.9905819,534.525134 52.4308597,542.139592 L53.5366633,544.350241 C56.6083399,551.227815 59.4342824,558.228204 62.8745602,564.860151 C66.314838,571.492098 69.8779829,577.141534 73.3182607,583.159412 C74.0554631,584.510364 74.9155325,585.738502 75.5298679,587.089454 C78.2329433,591.75638 80.9360187,596.546119 83.7619612,601.213045 C86.5879037,605.879971 90.6425168,612.389104 94.2056617,617.792912 C95.3114653,619.512306 96.5401359,620.986072 97.6459395,622.582652 L104.649362,632.530572 C108.212507,637.320312 111.529918,642.355679 115.093063,647.145418 L119.762011,652.917668 L125.536763,660.409312 C128.977041,664.584982 132.540186,668.392211 135.980464,672.690695 L141.755216,679.322642 C143.352488,681.16485 144.826892,683.007057 146.424164,684.726451 C149.987309,688.53368 153.30472,692.463722 156.867865,696.148137 C160.43101,699.832552 161.536813,700.692249 163.871287,702.780084 L167.311565,706.096058 C170.751843,709.534845 174.314988,712.850818 177.755266,716.043978 L185.987359,723.904063 C186.724561,723.904063 187.461764,725.377829 188.321833,725.991898 C191.639244,729.062244 195.202389,731.886962 198.765534,734.71168 C202.328679,737.536399 204.908887,739.624234 208.103431,742.08051 L209.209234,742.940207 L219.652935,751.168734 C223.093213,753.747824 226.410623,756.695356 229.973768,759.274447 L229.973768,759.274447 L240.417469,766.029208 C243.734879,768.36267 247.298024,770.450505 250.861169,772.783968 L252.08984,773.520851 L261.30487,779.415915 C264.745147,781.50375 268.185425,783.960027 271.74857,786.047862 L274.205911,787.398814 L282.192271,791.697298 C285.509681,793.66232 289.072826,795.2589 292.635971,796.978293 L296.199116,798.820501 L303.079672,802.259288 C306.519949,803.978682 309.960227,805.943703 313.523372,807.540283 L318.315188,809.873746 L323.967073,812.452836 C327.284483,813.926602 330.970495,815.031926 334.410773,816.505692 L340.431259,818.716341 L344.854474,820.435735 C348.294751,821.786687 351.735029,823.260453 355.298174,824.488592 L362.424464,827.190496 L365.741875,828.418634 C369.182152,829.646772 372.62243,830.629283 376.185575,831.734608 C379.74872,832.839932 381.714593,833.208374 384.540536,833.945257 L386.629276,833.945257 C390.069553,835.050581 393.509831,835.910278 397.072976,836.769975 C400.636121,837.629672 403.339196,838.612182 406.656607,839.349065 L407.516677,839.349065 C410.956954,840.208762 414.397232,841.4369 417.960377,842.173783 C421.523522,842.910666 424.9638,843.401922 428.404078,844.015991 L428.404078,844.015991 L438.602044,845.612571 L449.045744,847.20915 L450.520149,847.20915 C453.468959,847.20915 456.417768,848.314475 459.489445,848.682916 L469.933145,850.40231 L472.636221,850.40231 L480.376846,850.40231 C483.817124,850.40231 487.257402,850.40231 490.820546,851.016379 L494.629425,851.016379 L501.264247,851.016379 L511.707947,851.016379 L516.745497,851.016379 L522.151648,851.016379 L525.100458,851.016379 L529.277938,851.016379 L533.332551,851.016379 L1403.4771,851.016379 C1530.89025,851.016379 1638.5218,939.319524 1673.78465,1060.65959 L1686.80855,1050.58886 C1694.30344,1044.57098 1701.79834,1038.30747 1708.92463,1032.16678 C1716.05092,1026.02609 1723.79154,1018.41163 1731.0407,1011.16562 C1738.28985,1003.9196 1745.90761,995.199818 1753.0339,986.60285 C1760.16019,978.005882 1768.14655,968.67203 1775.14997,959.215365 C1782.1534,949.7587 1790.26262,938.459828 1797.26605,927.529397 C1804.26947,916.598966 1812.50156,902.229747 1819.25925,889.088667 C1822.33093,883.193603 1825.034,876.807284 1827.73708,871.157848 C1785.49026,754.591984 1675.19179,676.569178 1551.16331,675.515413 Z" id="Path" fill="url(#linearGradient-10)" fill-rule="nonzero"></path>
                        </g>
                    </g>
                </g>
            </g>
        </g>
    </g>
</svg>