<svg xmlns="http://www.w3.org/2000/svg" width="35" height="33" viewBox="0 0 35 33">
    <g fill="#EE1686" fill-rule="nonzero">
        <path d="M23.771 16.394c0-3.239-2.655-5.873-5.917-5.873-3.263 0-5.917 2.636-5.917 5.873 0 3.239 2.655 5.873 5.917 5.873 3.264 0 5.917-2.635 5.917-5.873zm-10.084 0c0-2.28 1.87-4.136 4.167-4.136 2.298 0 4.167 1.855 4.167 4.136s-1.87 4.136-4.167 4.136c-2.298 0-4.167-1.855-4.167-4.136zM20.79 25.924c-.03 0-.058.004-.088.004l-.565-2.278a.873.873 0 0 0-1.058-.635.867.867 0 0 0-.64 1.05l.58 2.335a3.515 3.515 0 0 0-1.773 3.044c0 1.941 1.591 3.52 3.548 3.52 1.956 0 3.547-1.579 3.547-3.52-.002-1.94-1.594-3.52-3.55-3.52zm0 5.304c-.99 0-1.797-.8-1.797-1.784 0-.771.496-1.428 1.187-1.676.024-.004.049-.007.073-.014a.956.956 0 0 0 .141-.048 1.793 1.793 0 0 1 2.194 1.74c0 .981-.806 1.782-1.797 1.782zM31.283 14.302a3.55 3.55 0 0 0-3.334 2.326l-2.388-.238a.874.874 0 0 0-.958.778.87.87 0 0 0 .783.95l2.394.238a3.541 3.541 0 0 0 3.503 2.988c1.956 0 3.548-1.58 3.548-3.521-.002-1.942-1.593-3.521-3.548-3.521zm0 5.305c-.992 0-1.798-.8-1.798-1.784s.806-1.784 1.798-1.784c.99 0 1.797.8 1.797 1.784a1.794 1.794 0 0 1-1.797 1.784zM21.618 10.81a.878.878 0 0 0 1.2-.299l1.961-3.248c.254.059.518.091.79.091 1.957 0 3.548-1.58 3.548-3.52 0-1.943-1.591-3.522-3.548-3.522-1.956 0-3.548 1.58-3.548 3.521 0 1.048.465 1.987 1.2 2.631l-1.904 3.152a.867.867 0 0 0 .301 1.193zm3.951-8.76c.991 0 1.798.8 1.798 1.784S26.56 5.62 25.57 5.62c-.99 0-1.798-.8-1.798-1.785 0-.983.807-1.784 1.798-1.784zM13.083 11.629a.865.865 0 0 0-.073-1.227l-.942-.832a3.48 3.48 0 0 0 .565-1.9c0-1.941-1.592-3.52-3.548-3.52-1.957 0-3.548 1.579-3.548 3.52 0 1.942 1.591 3.522 3.548 3.522.615 0 1.193-.156 1.698-.43l1.064.939c.166.148.374.22.58.22a.884.884 0 0 0 .656-.292zM7.288 7.67c0-.984.807-1.785 1.798-1.785.99 0 1.797.8 1.797 1.785 0 .983-.807 1.784-1.798 1.784-.99 0-1.797-.8-1.797-1.784zM10.648 18.347l-3.716.884a3.55 3.55 0 0 0-3.17-1.95C1.804 17.28.212 18.86.212 20.8c0 1.942 1.592 3.522 3.548 3.522a3.537 3.537 0 0 0 3.541-3.393l3.755-.894a.868.868 0 1 0-.41-1.69zM3.76 22.584c-.991 0-1.798-.8-1.798-1.784s.806-1.784 1.798-1.784c.99 0 1.798.8 1.798 1.784 0 .985-.807 1.784-1.798 1.784z"/>
    </g>
</svg>
