<svg xmlns="http://www.w3.org/2000/svg" width="36" height="33" viewBox="0 0 36 33">
    <g fill="#EE1686" fill-rule="nonzero">
        <path d="M35.864 30.252v-1.038c0-.105 0-.284-.019-.421a4.266 4.266 0 0 0-3.106-3.77 4.16 4.16 0 0 0-.833-.142h-.05l.094-.073a4.236 4.236 0 0 0 .375-6.189 4.16 4.16 0 0 0-5.556-.429 4.154 4.154 0 0 0-.56 5.99 4.12 4.12 0 0 0 .676.603l.143.098a.133.133 0 0 1 .042.153.132.132 0 0 1-.132.086 3.949 3.949 0 0 0-2.084.649c-.49.326-.902.758-1.202 1.266a3.757 3.757 0 0 0-.919-1.127 3.945 3.945 0 0 0-1.961-.886c-.097 0-.195-.018-.292-.028h-.071a4.224 4.224 0 0 0 1.36-1.485c.466-.85.628-1.835.46-2.792a4.406 4.406 0 0 0-1.44-2.538 4.262 4.262 0 0 0-4.24-.786 4.307 4.307 0 0 0-2.775 3.324 4.264 4.264 0 0 0 1.302 3.866c.16.146.33.28.508.4h-.05c-.098 0-.199 0-.292.028a3.982 3.982 0 0 0-1.984.89 3.775 3.775 0 0 0-.924 1.137 3.994 3.994 0 0 0-1.13-1.211 3.927 3.927 0 0 0-2.042-.686H9a.098.098 0 0 1-.04-.017.154.154 0 0 1-.057-.07.129.129 0 0 1 .032-.15.299.299 0 0 1 .054-.042c.083-.058.168-.112.244-.177a4.175 4.175 0 0 0 1.174-1.448 4.122 4.122 0 0 0 .324-2.57 4.23 4.23 0 0 0-1.371-2.354 4.1 4.1 0 0 0-5.4 0 4.243 4.243 0 0 0-.59 5.777c.165.22.352.422.558.607.076.065.158.13.237.192v-.001c-.263.011-.526.05-.782.113a4.268 4.268 0 0 0-3.221 3.734c0 .145-.019.309-.021.44v2.473c0 .524.42.947.939.95 10.936.054 22.867.054 33.84 0a.95.95 0 0 0 .946-.962l-.002-1.384zm-11.69-1.118c.018-.453.141-.896.36-1.294a2.742 2.742 0 0 1 2.415-1.393 1.488 1.488 0 0 0 1.4-.946 1.505 1.505 0 0 0-.377-1.653 1.437 1.437 0 0 0-.176-.146l-.076-.058c-.054-.04-.104-.087-.155-.128v.002a2.641 2.641 0 0 1-.281-.295 2.63 2.63 0 0 1 .436-3.77 2.55 2.55 0 0 1 1.66-.505 2.558 2.558 0 0 1 2.364 2.383 2.454 2.454 0 0 1-.586 1.743c-.108.124-.23.234-.36.33l-.094.073-.104.095c-.18.131-.335.296-.454.485a1.742 1.742 0 0 0-.09 1.676c.26.536.776.9 1.365.96l.36.022v.001a2.397 2.397 0 0 1 1.32.535c.512.42.829 1.032.875 1.695v1.718c-3.219 0-6.512-.021-9.838-.028l.035-1.502zm-22.15-.225a2.424 2.424 0 0 1 1.8-2.132c.157-.042.319-.066.482-.072h.159-.002a1.715 1.715 0 0 0 1.623-1.364 1.728 1.728 0 0 0-.624-1.715l-.162-.12c-.069-.043-.13-.097-.191-.148a2.532 2.532 0 0 1-.695-2.77 2.504 2.504 0 0 1 2.318-1.644 2.504 2.504 0 0 1 1.634.58c.451.372.769.882.908 1.451a2.668 2.668 0 0 1-.159 1.643 2.724 2.724 0 0 1-.73.972c-.052.047-.105.084-.16.123h.002c-.12.083-.228.182-.321.294a1.492 1.492 0 0 0 .478 2.292 1.447 1.447 0 0 0 .623.148h.115A2.727 2.727 0 0 1 11.5 27.88c.22.397.343.842.36 1.295l.021 1.476c-3.334 0-6.635 0-9.854.033V29.17l-.002-.262zm10.8 1.741l.043-1.483v-.265h-.001a2.905 2.905 0 0 1 1.232-1.864 2.638 2.638 0 0 1 1.296-.435h.27c.075.004.15.004.227 0 .329-.037.64-.174.888-.395a1.679 1.679 0 0 0-.025-2.55c-.065-.058-.155-.119-.162-.127v.001a2.405 2.405 0 0 1-.29-.258 2.461 2.461 0 0 1-.662-2.22c.107-.542.398-1.032.823-1.385a2.356 2.356 0 0 1 3.035 0c.423.359.717.846.835 1.39.118.53.058 1.085-.173 1.578a2.54 2.54 0 0 1-.745.902l-.083.033-.101.083h.001a1.746 1.746 0 0 0-.184.185 1.717 1.717 0 0 0-.274.457 1.673 1.673 0 0 0 .443 1.893c.248.218.558.352.885.388.074.004.147.004.22 0h.27c.464.028.913.178 1.3.435a2.906 2.906 0 0 1 1.217 1.78v.319l.044 1.504c-3.436.027-6.888.032-10.315.034h-.014z"/>
        <path d="M27.053 13.378h.386a2.922 2.922 0 0 0 2.574-2.397c.038-.24.052-.483.043-.725v-.577l-.047-2.222-.13-4.012v-.457a2.67 2.67 0 0 0-.54-1.537 2.608 2.608 0 0 0-1.62-.997.452.452 0 0 0-.554.472c.01.223.151.421.36.5.378.106.704.35.915.68a1.557 1.557 0 0 1 .242.89v.447l-.104 3.989-.047 2.222h-.001c.005.337-.01.676-.047 1.012a1.338 1.338 0 0 1-.36.641c-.22.224-.516.361-.828.384h-.863l-2.582-.032a.86.86 0 0 0-.616.249.873.873 0 0 0-.259.615v.02l-.018 1.814-2.437-2.502a.94.94 0 0 0-.667-.283h-3.685a.965.965 0 0 0-.688.283l-2.34 2.317v-1.637.002a.99.99 0 0 0-.986-.99H8.816c-.121 0-.244-.019-.36-.054a1.146 1.146 0 0 1-.78-1.088v-3.92l-.02-2.538v-.95a1.26 1.26 0 0 1 0-.18 1.17 1.17 0 0 1 .866-1.004c.055-.015.11-.027.168-.036h.802l2.34-.029c6.12-.083 11.354-.207 14.894-.362A.484.484 0 0 0 27.167.9a.485.485 0 0 0-.441-.484C23.188.257 17.959.133 11.832.054L9.496 0h-.99a3.014 3.014 0 0 0-2.663 2.538c-.025.148-.04.297-.044.447v.953l-.018 2.539v3.92a3.103 3.103 0 0 0 2.102 2.955c.31.102.633.156.958.16h2.319v3.039c-.003.404.239.77.609.924a.983.983 0 0 0 1.08-.221l3.711-3.734h2.88l3.755 3.705a.907.907 0 0 0 1 .19.92.92 0 0 0 .555-.857l-.021-3.14 1.696-.022.628-.018z"/>
        <path d="M19.202 6.727c0 1.29-1.922 1.29-1.922 0 0-1.292 1.922-1.292 1.922 0M23.029 6.727c0 1.29-1.922 1.29-1.922 0 0-1.292 1.922-1.292 1.922 0M15.372 6.727c0 1.29-1.923 1.29-1.923 0 0-1.292 1.923-1.292 1.923 0"/>
    </g>
</svg>
