<svg width="72" height="21" viewBox="0 0 72 21" fill="none" xmlns="http://www.w3.org/2000/svg">
<g opacity="0.2">
<g clip-path="url(#clip0)">
<path d="M39.0108 13.5721C39.0108 15.8541 36.2359 15.7186 36.2359 15.7186H33.461V11.5952H36.2359C39.0916 11.5756 39.0108 13.5721 39.0108 13.5721ZM33.461 5.30672H35.5755C37.7712 5.42542 37.6883 7.09834 37.6883 7.09834C37.6883 9.17732 35.2604 9.21121 35.2604 9.21121H33.461V5.30672ZM38.4975 10.0221C38.4975 10.0221 40.3969 9.19382 40.38 6.99695C40.38 6.99695 40.6688 3.39661 36.0075 2.95748H30.8351V18.0509H36.7639C36.7639 18.0509 41.7177 18.066 41.7177 13.7922C41.7176 13.7922 41.8347 10.8838 38.4975 10.0221ZM25.1117 0H46.8883V21H25.1117V0ZM13.899 13.5721C13.899 15.8541 11.124 15.7186 11.124 15.7186H8.3489V11.5952H11.124C13.98 11.5756 13.899 13.5721 13.899 13.5721ZM8.3489 5.30672H10.4638C12.6596 5.42542 12.5765 7.09834 12.5765 7.09834C12.5765 9.17732 10.1488 9.21121 10.1488 9.21121H8.3489V5.30672ZM13.3859 10.0221C13.3859 10.0221 15.2855 9.19382 15.2685 6.99695C15.2685 6.99695 15.5571 3.39661 10.8958 2.95748H5.72321V18.0509H11.6523C11.6523 18.0509 16.606 18.066 16.606 13.7922C16.606 13.7922 16.7227 10.8838 13.3859 10.0221ZM0 0H21.7766V21H0V0ZM67.5577 4.03955V6.82808C67.5577 6.82808 64.8978 5.15537 61.9587 5.1217C61.9587 5.1217 56.4751 5.01155 56.2279 10.5008C56.2279 10.5008 56.0298 15.5489 61.8926 15.8365C61.8926 15.8365 64.3524 16.1397 67.6896 13.962V16.8499C67.6896 16.8499 63.2131 19.5716 58.0274 17.4753C58.0274 17.4753 53.6681 15.8463 53.5021 10.5008C53.5021 10.5008 53.3208 5.00278 59.1347 3.17771C59.1347 3.17771 60.6872 2.56947 63.4772 2.83981C63.4773 2.83973 65.1448 3.00854 67.5577 4.03955ZM50.2234 21H72V0H50.2234V21Z" fill="black"/>
</g>
</g>
<defs>
<clipPath id="clip0">
<rect width="72" height="21" fill="white"/>
</clipPath>
</defs>
</svg>
