<svg width="48" height="60" viewBox="0 0 48 60" fill="none" xmlns="http://www.w3.org/2000/svg">
<path d="M36.2252 23.4375V48.75H43.7252C44.7602 48.75 45.6002 47.9156 45.6002 46.8881V15H38.0964C36.0283 15 34.3502 13.3369 34.3502 11.2387V1.875H15.5927C14.5614 1.875 13.7252 2.72812 13.7252 3.74063V9.375H24.9752L36.2252 22.5V23.4375ZM11.8502 9.375V3.76312C11.8502 1.68375 13.5321 0 15.6058 0H36.2252L47.4752 13.125V46.8919C47.4752 48.9413 45.7989 50.625 43.7308 50.625H36.2252V56.2669C36.2252 58.3163 34.5489 60 32.4808 60H4.34643C2.2708 60 0.602051 58.3144 0.602051 56.2369V13.14C0.602051 11.0606 2.28393 9.37687 4.35768 9.37687H11.8521L11.8502 9.375ZM36.2252 2.8125V11.2331C36.2252 12.2775 37.0708 13.125 38.0946 13.125H45.0377L36.2252 2.8125ZM23.1002 11.25H4.34268C3.31143 11.25 2.47518 12.1031 2.47518 13.1156V56.2575C2.47518 57.2887 3.3283 58.1231 4.35018 58.1231H32.4752C33.5102 58.1231 34.3502 57.2888 34.3502 56.2613V24.3731H26.8464C24.7783 24.3731 23.1002 22.71 23.1002 20.6119V11.2481V11.25ZM24.9752 12.1875V20.6081C24.9752 21.6525 25.8208 22.5 26.8446 22.5H33.7877L24.9752 12.1875Z" fill="#00C297"/>
</svg>
