<svg xmlns="http://www.w3.org/2000/svg" width="2282" height="2356" viewBox="0 0 2282 2356">
    <g fill="#000" fill-rule="evenodd" opacity=".2">
        <path d="M708.65 2356l-396.035-294.064 854.6-1164.68c-46.32 6.176-85.69 10.806-118.115 13.894-32.424 3.087-58.672 4.63-78.744 4.63-288.728 0-538.853-110.369-750.381-331.11C9.991 365.47-95 101.51-95-207.22c0-328.798 116.57-609.738 349.715-842.83C489.403-1284.683 770.407-1402 1097.736-1402c325.785 0 609.105 115.772 849.97 347.32C2188.57-824.676 2309-552.998 2309-239.636c0 277.857-117.342 578.092-352.03 900.715L708.65 2356z" opacity=".22"/>
        <path d="M727.558 1691.12l-247.49-183.794 534.057-727.94c-28.946 3.859-53.55 6.753-73.813 8.683-20.262 1.93-36.665 2.894-49.208 2.894-180.432 0-336.74-68.982-468.929-206.95-131.223-137.001-196.834-301.98-196.834-494.941 0-205.503 72.848-381.095 218.544-526.78 146.662-146.65 322.267-219.974 526.82-219.974 203.59 0 380.643 72.359 531.163 217.08 150.521 143.755 225.78 313.558 225.78 509.413 0 173.665-73.329 361.316-219.99 562.96l-780.1 1059.35zM553.88 64.47c0 120.6 41.006 221.903 123.021 303.911 82.98 82.973 182.843 124.46 299.593 124.46 116.75 0 216.131-41.004 298.146-123.013C1357.62 286.855 1399.11 187 1399.11 70.258c0-116.74-41.49-216.597-124.47-299.57-82.014-82.008-181.877-123.011-299.592-123.011-115.786 0-214.684 41.003-296.699 123.011-82.98 82.973-124.468 180.9-124.468 293.782z"/>
    </g>
</svg>
