<svg width="52" height="52" viewBox="0 0 52 52" fill="none" xmlns="http://www.w3.org/2000/svg">
<path d="M21 28.5C22.0736 29.9353 23.4434 31.1229 25.0164 31.9823C26.5894 32.8417 28.3288 33.3528 30.1166 33.4808C31.9045 33.6089 33.699 33.3509 35.3784 32.7244C37.0578 32.098 38.5828 31.1177 39.85 29.85L47.35 22.35C49.627 19.9925 50.8869 16.8349 50.8584 13.5575C50.8299 10.28 49.5153 7.14485 47.1977 4.82725C44.8801 2.50965 41.745 1.19504 38.4675 1.16656C35.1901 1.13808 32.0325 2.39801 29.675 4.67498L25.375 8.94998" stroke="#3ECDED" stroke-width="2" stroke-linecap="round" stroke-linejoin="round"/>
<path d="M31 23.5C29.9263 22.0647 28.5566 20.877 26.9836 20.0176C25.4106 19.1582 23.6712 18.6472 21.8833 18.5192C20.0955 18.3911 18.301 18.6491 16.6216 19.2755C14.9422 19.902 13.4172 20.8823 12.15 22.15L4.64995 29.65C2.37297 32.0075 1.11304 35.165 1.14152 38.4425C1.17001 41.72 2.48462 44.8551 4.80222 47.1727C7.11982 49.4903 10.255 50.8049 13.5324 50.8334C16.8099 50.8619 19.9674 49.602 22.325 47.325L26.6 43.05" stroke="#3ECDED" stroke-width="2" stroke-linecap="round" stroke-linejoin="round"/>
</svg>
