<svg width="240" height="240" viewBox="0 0 240 240" fill="none" xmlns="http://www.w3.org/2000/svg">
<g id="bottom Icon">
<g id="Group 5 Copy">
<g id="Rectangle" filter="url(#filter0_ii)">
<path fill-rule="evenodd" clip-rule="evenodd" d="M0.0880695 59.7753C0.0927798 38.9673 0.095135 28.5632 4.14581 20.6151C7.70891 13.6237 13.3933 7.93933 20.3847 4.37624C28.3328 0.325556 38.7368 0.3232 59.5449 0.318488L180.084 0.29119C200.909 0.286474 211.322 0.284116 219.275 4.33578C226.272 7.8997 231.96 13.5876 235.523 20.5837C239.575 28.5373 239.573 38.9499 239.568 59.7749L239.541 179.637C239.536 200.445 239.534 210.849 235.483 218.797C231.92 225.789 226.236 231.473 219.244 235.036C211.296 239.087 200.892 239.089 180.084 239.094L59.5447 239.121C38.7196 239.126 28.3071 239.128 20.3535 235.077C13.3573 231.513 7.66945 225.825 4.10553 218.829C0.0538648 210.875 0.0562219 200.463 0.0609361 179.637L0.0880695 59.7753Z" fill="#F4F8FB"/>
<path fill-rule="evenodd" clip-rule="evenodd" d="M0.0880695 59.7753C0.0927798 38.9673 0.095135 28.5632 4.14581 20.6151C7.70891 13.6237 13.3933 7.93933 20.3847 4.37624C28.3328 0.325556 38.7368 0.3232 59.5449 0.318488L180.084 0.29119C200.909 0.286474 211.322 0.284116 219.275 4.33578C226.272 7.8997 231.96 13.5876 235.523 20.5837C239.575 28.5373 239.573 38.9499 239.568 59.7749L239.541 179.637C239.536 200.445 239.534 210.849 235.483 218.797C231.92 225.789 226.236 231.473 219.244 235.036C211.296 239.087 200.892 239.089 180.084 239.094L59.5447 239.121C38.7196 239.126 28.3071 239.128 20.3535 235.077C13.3573 231.513 7.66945 225.825 4.10553 218.829C0.0538648 210.875 0.0562219 200.463 0.0609361 179.637L0.0880695 59.7753Z" fill="url(#paint0_linear)"/>
</g>
<mask id="mask0" mask-type="alpha" maskUnits="userSpaceOnUse" x="0" y="0" width="240" height="240">
<g id="Rectangle_2">
<path fill-rule="evenodd" clip-rule="evenodd" d="M0.0880695 59.7753C0.0927798 38.9673 0.095135 28.5632 4.14581 20.6151C7.70891 13.6237 13.3933 7.93933 20.3847 4.37624C28.3328 0.325556 38.7368 0.3232 59.5449 0.318488L180.084 0.29119C200.909 0.286474 211.322 0.284116 219.275 4.33578C226.272 7.8997 231.96 13.5876 235.523 20.5837C239.575 28.5373 239.573 38.9499 239.568 59.7749L239.541 179.637C239.536 200.445 239.534 210.849 235.483 218.797C231.92 225.789 226.236 231.473 219.244 235.036C211.296 239.087 200.892 239.089 180.084 239.094L59.5447 239.121C38.7196 239.126 28.3071 239.128 20.3535 235.077C13.3573 231.513 7.66945 225.825 4.10553 218.829C0.0538648 210.875 0.0562219 200.463 0.0609361 179.637L0.0880695 59.7753Z" fill="white"/>
<path fill-rule="evenodd" clip-rule="evenodd" d="M0.0880695 59.7753C0.0927798 38.9673 0.095135 28.5632 4.14581 20.6151C7.70891 13.6237 13.3933 7.93933 20.3847 4.37624C28.3328 0.325556 38.7368 0.3232 59.5449 0.318488L180.084 0.29119C200.909 0.286474 211.322 0.284116 219.275 4.33578C226.272 7.8997 231.96 13.5876 235.523 20.5837C239.575 28.5373 239.573 38.9499 239.568 59.7749L239.541 179.637C239.536 200.445 239.534 210.849 235.483 218.797C231.92 225.789 226.236 231.473 219.244 235.036C211.296 239.087 200.892 239.089 180.084 239.094L59.5447 239.121C38.7196 239.126 28.3071 239.128 20.3535 235.077C13.3573 231.513 7.66945 225.825 4.10553 218.829C0.0538648 210.875 0.0562219 200.463 0.0609361 179.637L0.0880695 59.7753Z" stroke="white"/>
</g>
</mask>
<g mask="url(#mask0)">
</g>
</g>
<path id="Fill 11" fill-rule="evenodd" clip-rule="evenodd" d="M202.972 68.0938C202.194 66.4379 200.526 65.4487 198.509 65.4487H190.721C188.46 65.4487 186.769 66.3601 185.879 68.0049L174.336 84.898L184.441 98.7385L202.083 73.3915C204.021 71.0316 203.351 68.9014 202.972 68.0938Z" fill="#74BB11"/>
<path id="Fill 13" fill-rule="evenodd" clip-rule="evenodd" d="M142.245 67.808L142.234 67.7932C140.474 65.4487 138.136 65.4487 137.365 65.4487H129.749C127.799 65.4487 126.202 66.3436 125.365 67.9041C124.509 69.5016 124.69 71.4245 125.876 73.2031L154.09 112.319L121.648 157.57C120.513 159.271 120.354 161.164 121.214 162.762C122.051 164.322 123.649 165.217 125.598 165.217H133.384C135.386 165.217 137.146 164.178 138.024 162.54L174.336 112.497L142.245 67.808Z" fill="#009CD9"/>
<path id="Fill 15" fill-rule="evenodd" clip-rule="evenodd" d="M206.903 159.018L187.24 132.028L178.589 143.954L194.14 164.711L194.546 164.888C195.215 165.177 195.856 165.318 196.507 165.318H203.12C204.717 165.318 206.076 164.605 206.842 163.368C207.631 162.096 207.65 160.512 206.903 159.018Z" fill="#EB2084"/>
<path id="Fill 1" fill-rule="evenodd" clip-rule="evenodd" d="M91.682 122.933V149.356C83.9796 150.541 72.2409 150.804 68.2379 150.804C50.5372 150.804 48.6005 145.956 48.6005 135.66C48.6005 126.026 52.1961 122.933 63.3979 122.933H91.682ZM67.375 64.3357C61.9056 64.3357 54.4476 64.4764 45.1677 65.5987L44.7493 65.6876C42.046 66.4617 40.6759 68.2395 40.6759 70.9803V74.7841C40.6759 78.0286 42.6904 80.0435 45.9343 80.0435H67.375C84.6387 80.0435 91.682 84.7325 91.682 96.229V107.4H63.3979C41.2906 107.4 31.8589 115.848 31.8589 135.66C31.8589 157.738 41.6202 166.342 66.6826 166.342C76.8327 166.342 95.5221 165.553 102.428 163.442C108.253 161.819 108.253 157.36 108.253 155.89V95.1919C108.253 74.4285 94.8814 64.3357 67.375 64.3357Z" fill="#414040"/>
</g>
<defs>
<filter id="filter0_ii" x="0.0605469" y="0.290771" width="239.508" height="238.831" filterUnits="userSpaceOnUse" color-interpolation-filters="sRGB">
<feFlood flood-opacity="0" result="BackgroundImageFix"/>
<feBlend mode="normal" in="SourceGraphic" in2="BackgroundImageFix" result="shape"/>
<feColorMatrix in="SourceAlpha" type="matrix" values="0 0 0 0 0 0 0 0 0 0 0 0 0 0 0 0 0 0 127 0" result="hardAlpha"/>
<feOffset/>
<feGaussianBlur stdDeviation="4"/>
<feComposite in2="hardAlpha" operator="arithmetic" k2="-1" k3="1"/>
<feColorMatrix type="matrix" values="0 0 0 0 1 0 0 0 0 1 0 0 0 0 1 0 0 0 1 0"/>
<feBlend mode="normal" in2="shape" result="effect1_innerShadow"/>
<feColorMatrix in="SourceAlpha" type="matrix" values="0 0 0 0 0 0 0 0 0 0 0 0 0 0 0 0 0 0 127 0" result="hardAlpha"/>
<feOffset/>
<feGaussianBlur stdDeviation="0.5"/>
<feComposite in2="hardAlpha" operator="arithmetic" k2="-1" k3="1"/>
<feColorMatrix type="matrix" values="0 0 0 0 0.266396 0 0 0 0 0.249783 0 0 0 0 0.249783 0 0 0 0.5 0"/>
<feBlend mode="normal" in2="effect1_innerShadow" result="effect2_innerShadow"/>
</filter>
<linearGradient id="paint0_linear" x1="-72.6267" y1="59.2409" x2="-11.0957" y2="270.076" gradientUnits="userSpaceOnUse">
<stop stop-color="white" stop-opacity="0.5"/>
<stop offset="1" stop-color="#B4B0B0" stop-opacity="0.5"/>
</linearGradient>
</defs>
</svg>
