<svg xmlns="http://www.w3.org/2000/svg" width="75" height="43" viewBox="0 0 75 43">
    <g fill="#EE1686" fill-rule="nonzero">
        <path d="M14.552 28.24c5.09 0 9.23-4.202 9.23-9.372 0-5.166-4.14-9.368-9.23-9.368-5.09 0-9.23 4.202-9.23 9.371 0 5.167 4.14 9.369 9.23 9.369zm0-14.797c2.949 0 5.347 2.435 5.347 5.428s-2.398 5.428-5.347 5.428c-2.95 0-5.348-2.435-5.348-5.428s2.399-5.428 5.348-5.428zM3.96 42.03c0-4.026 3.226-7.3 7.192-7.3h6.8c.203 0 .405.009.605.025a1.999 1.999 0 0 0 1.53-.522c.398-.373.617-.883.617-1.432 0-1.006-.76-1.869-1.729-1.964-.338-.032-.679-.049-1.027-.049H11.15C5.045 30.785.074 35.83.074 42.03v.81H3.96v-.81zM21.396 42.84h3.886v-4.856c0-4.552 3.648-8.254 8.133-8.254h7.498c4.484 0 8.132 3.702 8.132 8.254v4.856h3.886v-4.856c0-4.117-2.038-7.93-5.448-10.201a11.81 11.81 0 0 0-6.567-1.997h-7.498c-3.712 0-7.16 1.716-9.462 4.705a12.18 12.18 0 0 0-2.553 7.493l-.007 4.856zM63.172 30.785h-6.8c-.19 0-.38.007-.566.017a1.98 1.98 0 0 0-1.867 1.977c0 .542.222 1.065.608 1.434.39.373.902.56 1.43.53.132-.01.264-.013.396-.013h6.8c3.966 0 7.192 3.274 7.192 7.3v.81h3.885v-.81c0-6.2-4.97-11.244-11.077-11.244zM59.773 28.24c5.09 0 9.233-4.202 9.233-9.372 0-5.166-4.14-9.368-9.233-9.368-5.094 0-9.234 4.202-9.234 9.371 0 5.167 4.144 9.369 9.234 9.369zm0-14.797c2.949 0 5.347 2.435 5.347 5.428s-2.398 5.428-5.347 5.428c-2.95 0-5.348-2.435-5.348-5.428s2.399-5.428 5.348-5.428zM37.162 24.237c6.404 0 11.613-5.287 11.613-11.787 0-6.5-5.21-11.787-11.613-11.787-6.404 0-11.613 5.288-11.613 11.787 0 6.496 5.21 11.787 11.613 11.787zm0-19.633c4.263 0 7.73 3.52 7.73 7.846 0 4.327-3.467 7.846-7.73 7.846-4.262 0-7.73-3.52-7.73-7.846 0-4.326 3.468-7.846 7.73-7.846z"/>
    </g>
</svg>
