<svg xmlns="http://www.w3.org/2000/svg" width="33" height="42" viewBox="0 0 33 42">
    <path fill="#F9007A" fill-rule="nonzero" d="M32.308 9.611L24.245.524a1.17 1.17 0 0 0-.874-.393H1.285C.64.131.117.654.117 1.3v38.973c0 .646.522 1.168 1.168 1.168h30.149c.646 0 1.168-.522 1.168-1.168V10.386c0-.285-.104-.56-.294-.775zm-7.787-5.257l4.366 4.92H24.52v-4.92zm5.744 34.75H2.454V2.468h19.73v7.975c0 .647.522 1.169 1.169 1.169h6.912v27.492zM6.641 20.046c0 .646.522 1.169 1.168 1.169h17.103c.646 0 1.168-.523 1.168-1.169s-.522-1.168-1.168-1.168H7.809c-.646 0-1.168.522-1.168 1.168zm18.27 5.147H7.81c-.646 0-1.168.522-1.168 1.169 0 .646.522 1.168 1.168 1.168h17.103a1.167 1.167 0 1 0 0-2.337zm0 6.314H7.81c-.646 0-1.168.522-1.168 1.169 0 .646.522 1.168 1.168 1.168h17.103a1.167 1.167 0 1 0 0-2.337z"/>
</svg>
