<svg width="53" height="53" viewBox="0 0 53 53" fill="none" xmlns="http://www.w3.org/2000/svg">
<path d="M12.2083 3.04785C12.3188 2.95377 12.4097 2.83882 12.4758 2.70958C12.5418 2.58033 12.5818 2.43933 12.5933 2.29464C12.6048 2.14994 12.5877 2.0044 12.5429 1.86633C12.4981 1.72827 12.4265 1.6004 12.3322 1.49003C12.2379 1.37966 12.1228 1.28897 11.9934 1.22314C11.8641 1.15731 11.723 1.11764 11.5783 1.10639C11.4336 1.09515 11.2881 1.11255 11.1501 1.15761C11.0121 1.20266 10.8843 1.27448 10.7742 1.36896C5.14333 6.17757 1.63755 13.4167 1.15555 21.2294L1.10622 22.0289C1.09729 22.1737 1.11695 22.3187 1.16408 22.4558C1.21121 22.593 1.28489 22.7195 1.38092 22.8281C1.47694 22.9367 1.59342 23.0254 1.72372 23.089C1.85401 23.1526 1.99556 23.19 2.14028 23.1989C2.16346 23.2005 2.18638 23.201 2.20929 23.201C2.49018 23.2007 2.7604 23.0934 2.96493 22.9009C3.16947 22.7084 3.29294 22.4451 3.31022 22.1648L3.35955 21.3652C3.80518 14.1466 7.03034 7.47044 12.2083 3.04785Z" fill="#AD0256"/>
<path d="M51.8425 21.1921C51.3158 13.3665 47.758 6.14141 42.0813 1.36945C41.9703 1.27613 41.842 1.20559 41.7037 1.16187C41.5654 1.11814 41.4199 1.10207 41.2754 1.11459C41.1309 1.12711 40.9903 1.16796 40.8616 1.23482C40.7329 1.30167 40.6186 1.39322 40.5253 1.50424C40.432 1.61526 40.3615 1.74357 40.3178 1.88185C40.274 2.02012 40.258 2.16566 40.2705 2.31015C40.283 2.45463 40.3238 2.59524 40.3907 2.72394C40.4576 2.85263 40.5491 2.9669 40.6601 3.06022C45.8801 7.44777 49.1527 14.1105 49.6396 21.341L49.6902 22.0898C49.709 22.369 49.8331 22.6306 50.0374 22.8217C50.2416 23.0129 50.5109 23.1193 50.7906 23.1196C50.8154 23.1196 50.8408 23.1191 50.8661 23.1169C51.0108 23.1072 51.1521 23.0691 51.2821 23.0047C51.412 22.9404 51.528 22.851 51.6233 22.7418C51.7187 22.6326 51.7917 22.5057 51.838 22.3683C51.8843 22.2309 51.903 22.0857 51.8932 21.941L51.8425 21.1921Z" fill="#AD0256"/>
<path d="M8.54769 22.8467C8.54769 16.5059 11.2604 10.4492 15.8043 6.6444C15.9154 6.55132 16.0072 6.43725 16.0742 6.30871C16.1413 6.18017 16.1824 6.03968 16.1952 5.89526C16.208 5.75083 16.1922 5.60531 16.1487 5.46699C16.1053 5.32867 16.035 5.20026 15.9419 5.08911C15.8488 4.97795 15.7347 4.88621 15.6062 4.81914C15.4777 4.75206 15.3372 4.71096 15.1927 4.69818C15.0483 4.68541 14.9028 4.7012 14.7645 4.74466C14.6262 4.78812 14.4978 4.8584 14.3866 4.95149C9.27257 9.23337 6.33936 15.7559 6.33936 22.8467C6.33936 23.1396 6.45569 23.4204 6.66276 23.6275C6.86983 23.8346 7.15068 23.9509 7.44352 23.9509C7.73637 23.9509 8.01721 23.8346 8.22429 23.6275C8.43136 23.4204 8.54769 23.1396 8.54769 22.8467Z" fill="#AD0256"/>
<path d="M38.5332 4.93099C38.3081 4.74353 38.0178 4.65316 37.7261 4.67975C37.4344 4.70634 37.1652 4.84772 36.9777 5.07279C36.7903 5.29785 36.6999 5.58817 36.7265 5.87987C36.7531 6.17157 36.8945 6.44076 37.1195 6.62822C41.6769 10.4232 44.3974 16.4865 44.3974 22.8468C44.3974 23.1396 44.5138 23.4205 44.7208 23.6275C44.9279 23.8346 45.2087 23.9509 45.5016 23.9509C45.7944 23.9509 46.0753 23.8346 46.2824 23.6275C46.4894 23.4205 46.6058 23.1396 46.6058 22.8468C46.6058 15.8384 43.5876 9.14063 38.5332 4.93099Z" fill="#AD0256"/>
<path d="M41.993 34.3629V22.8495C41.993 14.9654 37.3014 8.29124 30.8885 6.15057C30.6914 5.124 30.1428 4.19818 29.337 3.53233C28.5312 2.86648 27.5186 2.50221 26.4733 2.50218C25.428 2.50215 24.4153 2.86635 23.6095 3.53216C22.8036 4.19796 22.255 5.12374 22.0579 6.1503C15.6447 8.2907 10.9529 14.965 10.9529 22.8495V34.3629L7.68863 40.2201C7.40645 40.729 7.26154 41.3025 7.26816 41.8844C7.27478 42.4662 7.43269 43.0363 7.72637 43.5386C7.98864 44.0006 8.36826 44.3852 8.82683 44.6535C9.28541 44.9218 9.80669 45.0643 10.338 45.0665H19.6084C19.6077 45.1072 19.6024 45.1451 19.6024 45.1862C19.6449 46.9802 20.3874 48.6864 21.6713 49.9402C22.9551 51.194 24.6784 51.8959 26.4729 51.8959C28.2674 51.8959 29.9908 51.194 31.2746 49.9402C32.5585 48.6864 33.301 46.9802 33.3435 45.1862C33.3435 45.1452 33.3382 45.1072 33.3375 45.0665H42.6076C43.1389 45.0643 43.6602 44.9219 44.1188 44.6536C44.5774 44.3853 44.957 44.0006 45.2192 43.5386C45.5129 43.0363 45.6708 42.4662 45.6774 41.8844C45.6841 41.3025 45.5392 40.729 45.257 40.2201L41.993 34.3629ZM26.4727 4.71049C26.7986 4.71611 27.1193 4.79274 27.4125 4.93505C27.7058 5.07735 27.9645 5.2819 28.1705 5.53444C27.0432 5.39269 25.9026 5.39264 24.7752 5.5343C24.9812 5.28183 25.2399 5.07733 25.533 4.93506C25.8262 4.79278 26.1469 4.71616 26.4727 4.71051V4.71049ZM31.1352 45.1862C31.0929 46.3944 30.5832 47.5391 29.7134 48.3789C28.8437 49.2187 27.6819 49.688 26.4729 49.688C25.2639 49.688 24.1022 49.2187 23.2324 48.3789C22.3627 47.5391 21.853 46.3944 21.8107 45.1862C21.8107 45.1445 21.8154 45.1073 21.8164 45.0665H31.1294C31.1304 45.1072 31.1352 45.1447 31.1352 45.1862V45.1862ZM43.315 42.4204C43.2466 42.5496 43.145 42.6583 43.0207 42.7353C42.8964 42.8122 42.7538 42.8546 42.6076 42.8582H10.338C10.1918 42.8546 10.0492 42.8121 9.92486 42.7352C9.80051 42.6582 9.69886 42.5496 9.63035 42.4204C9.53106 42.25 9.4777 42.0567 9.47548 41.8595C9.47325 41.6622 9.52225 41.4678 9.61768 41.2952L13.0216 35.1872C13.1132 35.0229 13.1612 34.8379 13.1612 34.6497L13.1612 22.8495C13.1612 14.4609 19.1328 7.63645 26.4727 7.63645C33.8131 7.63645 39.7847 14.4609 39.7847 22.8495V34.6497C39.7846 34.8379 39.8327 35.0229 39.9243 35.1872L43.3279 41.2952C43.4235 41.4678 43.4726 41.6622 43.4703 41.8595C43.468 42.0568 43.4145 42.2501 43.315 42.4204V42.4204Z" fill="#AD0256"/>
</svg>
