<svg width="81" height="25" viewBox="0 0 81 25" fill="none" xmlns="http://www.w3.org/2000/svg">
<g opacity="0.2">
<g clip-path="url(#clip0)">
<path d="M37.4685 4.07617V6.26559H32.9213V18.8704H30.2768V6.26559H25.7297V4.07617H37.4685ZM45.8145 7.83202V18.9506H43.4066V17.8407C43.1014 18.1737 41.9971 19.1909 40.007 19.1909C38.479 19.1909 37.0631 18.673 36.0275 17.73C34.8925 16.6935 34.2874 15.238 34.2874 13.518C34.2874 9.21323 37.718 7.65315 40.0196 7.65315C41.8539 7.65315 42.7578 8.31921 43.2817 8.81847L43.2939 8.83081C43.3567 8.89258 43.4005 8.92959 43.4376 8.92959C43.4626 8.92959 43.4815 8.90491 43.5126 8.74472L43.5814 8.39931L43.6435 8.09698C43.6813 7.91212 43.8117 7.83202 44.0736 7.83202H45.8145ZM39.951 17.0451C42.1841 17.0451 43.5126 15.6208 43.5126 13.2403C43.5126 12.2906 43.1947 11.4149 42.6208 10.7919C42.016 10.1322 41.1863 9.78678 40.2194 9.78678C38.0363 9.78678 36.6264 11.2237 36.6264 13.4498C36.6264 15.1824 37.4999 17.0451 39.951 17.0451ZM54.017 7.91212C53.8916 7.82567 53.4299 7.65913 52.9127 7.65913C52.083 7.65913 50.5487 7.82558 49.5813 8.94818C49.5192 9.02193 49.4753 9.05295 49.4381 9.05295C49.4253 9.05295 49.407 9.03426 49.3881 8.94818L49.2822 8.51006L49.189 8.10324C49.139 7.91203 49.0142 7.83792 48.7584 7.83792H47.1301V18.9573H49.5314V12.8266C49.5314 10.7859 50.5365 9.79285 52.6068 9.79285C52.7317 9.79285 52.806 9.7992 52.8626 9.81154L52.9126 9.81753H52.9314L54.0413 7.93679L54.017 7.91212ZM58.1895 18.1984C61.751 18.1984 63.4036 19.1848 63.4036 21.2999C63.4036 23.545 61.1145 24.9999 57.578 24.9999C54.5031 24.9999 52.5941 23.8346 52.5941 21.9659C52.5941 20.9055 53.1307 20.0852 54.1852 19.5305C53.4177 19.1415 53.0436 18.5682 53.0436 17.7726C53.0436 16.965 53.4798 16.2676 54.3472 15.707C53.4865 14.8434 52.9877 13.6961 52.9877 12.5495C52.9877 11.1185 53.5176 9.8852 54.5093 8.99118C55.4326 8.15857 56.668 7.7024 57.9959 7.7024C58.8195 7.7024 59.593 7.87493 60.285 8.21399C60.9525 7.84427 61.7445 7.66539 62.7179 7.66539C63.2356 7.66539 63.7285 7.74549 64.0774 7.88726L64.1029 7.8996L62.9919 9.8422H62.9736C62.9054 9.82986 62.6618 9.79285 62.3998 9.79285L62.094 9.80519C62.6057 10.576 62.8798 11.4764 62.8798 12.4077C62.8798 13.666 62.4119 14.8374 61.564 15.707C60.6467 16.6506 59.3809 17.1433 57.9086 17.1433C57.1601 17.1433 56.4492 16.9957 55.7943 16.7061C55.5325 16.891 55.4009 17.1252 55.4009 17.4155C55.4076 18.0684 56.4742 18.1984 58.1895 18.1984ZM60.8465 21.436C60.8465 20.6531 60.2289 20.3936 57.9714 20.2147L57.6096 20.1906C57.104 20.1532 56.5802 20.1099 56.0625 20.0424C55.6257 20.3447 55.1146 20.85 55.1146 21.5468C55.1146 22.5827 56.0375 23.0885 57.9338 23.0885C59.705 23.0825 60.8465 22.4344 60.8465 21.436ZM57.9648 9.73743C56.7172 9.73743 55.4325 10.7426 55.4325 12.4324C55.4325 14.0419 56.4242 15.1644 57.846 15.1644C58.6074 15.1644 60.3848 14.8801 60.3848 12.2719C60.3848 11.0139 59.5552 9.73743 57.9648 9.73743ZM81.0001 10.0028V7.84436H78.2931V4.69915H75.8353V7.85034H74.5251V10.0087H75.8353V15.775C75.8353 18.0623 77.0456 19.1728 79.5339 19.1728C80.2015 19.1728 80.7064 19.1114 80.9562 18.9933L80.9744 18.9873V16.7989L80.9374 16.8109C80.6565 16.8911 80.3885 16.9464 79.783 16.9464C78.7109 16.9464 78.2931 16.4039 78.2931 15.0164V10.0151H81.0001V10.0028ZM69.1795 7.6468C71.8182 7.6468 74.7999 9.78043 74.332 13.9431H66.1045C66.2861 16.2003 67.6457 17.1373 69.261 17.1373C71.0385 17.1373 71.7122 16.0834 72.018 15.454H74.3692C74.2322 16.9096 72.4607 19.1601 68.9869 19.1601C65.8115 19.1601 63.6157 16.5826 63.6157 13.5118C63.6157 9.13314 66.8471 7.6468 69.1795 7.6468ZM71.8303 12.0316C71.7244 10.8784 70.8515 9.645 69.2233 9.645C67.9447 9.645 66.66 10.2307 66.2361 12.0316H71.8303Z" fill="#1F1D1F"/>
<path d="M11.6515 0C5.21446 0 0 5.15538 0 11.5134C0 17.8715 5.21446 23.0331 11.6515 23.0331C18.0887 23.0331 23.297 17.878 23.297 11.5134C23.297 5.14931 18.0823 0 11.6515 0ZM11.6515 18.9999C7.47254 18.9999 4.07936 15.6449 4.07936 11.5134C4.07936 7.38181 7.46612 4.0268 11.6515 4.0268C15.8368 4.0268 19.2238 7.38181 19.2238 11.5134C19.2238 15.6509 15.8306 18.9999 11.6515 18.9999ZM11.6515 7.77022C13.7411 7.77022 15.4378 9.44741 15.4378 11.5134C15.4378 13.5792 13.7411 15.2571 11.6515 15.2571C9.56218 15.2571 7.86541 13.5792 7.86541 11.5134C7.86541 9.44741 9.56209 7.77022 11.6515 7.77022Z" fill="black"/>
</g>
</g>
<defs>
<clipPath id="clip0">
<rect width="81" height="25" fill="white"/>
</clipPath>
</defs>
</svg>
