<svg xmlns="http://www.w3.org/2000/svg" width="27" height="32" viewBox="0 0 27 32">
    <g fill="#EE1686" fill-rule="nonzero">
        <path d="M2.255 0v14.941H.075v11.251l2.18 2.18V32h24.671V6.857L20.066 0H2.256zm18.088 3.113l3.466 3.467h-3.466V3.113zM2.084 16.94h19.188v7.838H2.084V16.94zm2.18 13.06v-3.222H23.28V14.942H4.264V2h14.071v6.578h6.582v21.422H4.264z"/>
        <path d="M7.428 20.326c-.771-.04-.948-.097-.988-.12-.017-.01-.094-.07-.094-.42 0-.2.045-.328.133-.383.062-.037.242-.1.76-.1.448 0 .574.056.607.08.029.02.098.1.122.392 0 .021.002.056.007.106l.01.114h1.109v-.302c0-.525-.143-.888-.423-1.078-.269-.182-.758-.271-1.494-.271-.777 0-1.29.097-1.565.297-.283.208-.423.597-.423 1.19 0 .577.117.95.357 1.14.228.18.715.29 1.49.334l.491.031c.335.02.436.078.465.104.031.028.083.109.083.355 0 .345-.073.453-.117.485-.048.038-.202.101-.686.101-.659 0-.826-.062-.869-.09-.034-.02-.113-.112-.113-.497l-.008-.22-1.112-.001.008.296c0 .59.136.976.413 1.181.266.195.77.291 1.542.291.856 0 1.4-.097 1.665-.297.275-.208.41-.634.41-1.301 0-.55-.118-.908-.356-1.094-.228-.176-.693-.281-1.424-.323zM12.61 18.384l-.897 2.732c-.07.215-.157.504-.264.883a23.084 23.084 0 0 0-.26-.887l-.878-2.642-.03-.086H9.096l1.55 4.829.027.087h1.55l1.592-4.916-1.204-.001zM15.747 20.569v.902h1.174v.066c0 .47-.095.615-.15.662-.062.05-.251.132-.847.132-.607 0-.806-.097-.868-.156-.063-.058-.166-.236-.166-.793l-.008-.596.003-.47c0-.567.104-.749.168-.807.063-.06.265-.158.895-.158.59 0 .767.058.821.091.046.028.124.128.142.472l.007.117h1.146v-.125c0-.654-.137-1.071-.416-1.274-.267-.195-.817-.29-1.687-.29-.66 0-1.118.06-1.403.183-.297.127-.52.372-.661.732-.113.288-.167.937-.167 1.98 0 .843.142 1.393.433 1.678.29.286.846.426 1.697.426.92 0 1.505-.104 1.786-.317.29-.223.432-.682.432-1.404l-.017-1.05-2.314-.001z"/>
    </g>
</svg>
