<svg xmlns="http://www.w3.org/2000/svg" xmlns:xlink="http://www.w3.org/1999/xlink" width="34" height="30" viewBox="0 0 34 30">
    <defs>
        <linearGradient id="b" x1="50%" x2="50%" y1="0%" y2="100%">
            <stop offset="0%" stop-color="#FFF"/>
            <stop offset="100%" stop-color="#F3F3F3"/>
        </linearGradient>
        <path id="a" d="M0 0h2822v785H0z"/>
    </defs>
    <g fill="none" fill-rule="evenodd">
        <path fill="#FFF" d="M-606-3926h2822v6665H-606z"/>
        <g transform="translate(-606 -654)">
            <mask id="c" fill="#fff">
                <use xlink:href="#a"/>
            </mask>
            <use fill="url(#b)" xlink:href="#a"/>
            <g fill="#EE1686" fill-rule="nonzero" mask="url(#c)">
                <path d="M617.534 683.974h-3.54c-2.395 0-4.35-1.416-4.35-4.92l-.002-5.793c0-2.091-2.803-2.326-3.642-2.326v-3.842c.84 0 3.642-.234 3.642-2.324v-5.826c0-3.503 1.856-4.885 4.35-4.885h3.542v3.84h-1.653c-2.056 0-2.195 1.245-2.195 2.155v5.425c-.03 3.134-1.952 3.368-3.37 3.505v.065c1.416.104 3.34.34 3.37 3.474v5.457c0 .91.14 2.156 2.195 2.156h1.653v3.839zM628.461 654.058h3.642c2.292 0 4.25 1.418 4.25 4.918v5.795c0 2.088 2.7 2.324 3.646 2.324v3.842c-.946 0-3.646.233-3.646 2.325v5.828c0 3.502-1.856 4.885-4.35 4.885h-3.543l.001-3.841h1.652c2.059 0 2.193-1.246 2.193-2.156l.001-5.427c.034-3.133 1.955-3.367 3.375-3.504v-.065c-1.42-.104-3.34-.34-3.375-3.473v-5.456c0-.91-.134-2.155-2.192-2.155h-1.653v-3.84z"/>
            </g>
        </g>
    </g>
</svg>
