<svg xmlns="http://www.w3.org/2000/svg" width="34" height="27" viewBox="0 0 34 27">
    <path fill="#EE1686" fill-rule="nonzero" d="M0 9.281V27h12.75V5.906H0v3.375zm1.7 1.688h9.35v10.969H1.7v-10.97zm9.35 14.344H1.7v-1.688h9.35v1.688zm0-17.72v1.688H1.7V7.594h9.35zM34 21.094V27H14.45v-1.688H32.3v-2.53H14.45v-1.688h15.3V2.53a.847.847 0 0 0-.85-.844H5.1c-.47 0-.85.378-.85.844V4.22h-1.7V2.53A2.543 2.543 0 0 1 5.1 0h23.8a2.543 2.543 0 0 1 2.55 2.531v18.563H34zm-5.95-3.374v1.687h-13.6V17.72h13.6z"/>
</svg>
