<svg width="34" height="34" viewBox="0 0 34 34" fill="none" xmlns="http://www.w3.org/2000/svg">
<g clip-path="url(#clip0)">
<path d="M31.3092 8.13077H14.47C13.2787 8.13077 12.3118 7.16387 12.3118 5.97255C12.3118 4.78122 13.2787 3.81433 14.47 3.81433H31.3078C32.4991 3.81433 33.4673 4.78122 33.4673 5.97255C33.4673 7.16387 32.5005 8.13077 31.3091 8.13077H31.3092Z" fill="#F9007A"/>
<path d="M6.12768 8.78563H2.83791C1.64658 8.78563 0.679688 7.82009 0.679688 6.62873V5.21828C0.679688 4.02695 1.64658 3.06006 2.83791 3.06006H6.12768C7.319 3.06006 8.2859 4.02695 8.2859 5.21828V6.62873C8.28457 7.82006 7.31768 8.78563 6.12768 8.78563Z" fill="#F9007A"/>
<path d="M31.3092 18.8554H14.47C13.2787 18.8554 12.3118 17.8885 12.3118 16.6985C12.3118 15.5072 13.2787 14.5403 14.47 14.5403H31.3078C32.4991 14.5403 33.4673 15.5072 33.4673 16.6985C33.4673 17.8885 32.5005 18.8554 31.3091 18.8554H31.3092Z" fill="#F9007A"/>
<path d="M6.12768 19.5605H2.83791C1.64658 19.5605 0.679688 18.595 0.679688 17.4037V15.9932C0.679688 14.8019 1.64658 13.8363 2.83791 13.8363H6.12768C7.319 13.8363 8.2859 14.8032 8.2859 15.9932V17.4037C8.28457 18.595 7.31768 19.5605 6.12768 19.5605Z" fill="#F9007A"/>
<path d="M31.3092 29.6293H14.47C13.2787 29.6293 12.3118 28.6638 12.3118 27.4724C12.3118 26.2811 13.2787 25.3142 14.47 25.3142H31.3078C32.4991 25.3142 33.4673 26.2797 33.4673 27.4724C33.4673 28.6638 32.5005 29.6293 31.3091 29.6293H31.3092Z" fill="#F9007A"/>
<path d="M6.12768 30.3358H2.83791C1.64658 30.3358 0.679688 29.3689 0.679688 28.1776V26.7684C0.679688 25.5771 1.64658 24.6102 2.83791 24.6102H6.12768C7.319 24.6102 8.2859 25.5771 8.2859 26.7684V28.1776C8.28457 29.3689 7.31768 30.3358 6.12768 30.3358Z" fill="#F9007A"/>
</g>
<defs>
<clipPath id="clip0">
<rect width="34" height="34" fill="white"/>
</clipPath>
</defs>
</svg>
