<svg xmlns="http://www.w3.org/2000/svg" width="32" height="32" viewBox="0 0 32 32">
    <g fill="#EE1686" fill-rule="nonzero">
        <path d="M26.074.17h-5.756a1.727 1.727 0 1 0 0 3.455h5.756a2.302 2.302 0 0 1 2.303 2.303v5.756a1.728 1.728 0 0 0 3.455 0l-.002-5.758A5.757 5.757 0 0 0 26.074.17zM11.683.17H5.927A5.756 5.756 0 0 0 .17 5.926v5.756a1.727 1.727 0 1 0 3.455 0l-.001-5.756a2.302 2.302 0 0 1 2.303-2.303h5.756a1.727 1.727 0 1 0 0-3.453zM30.103 18.59c-.954 0-1.728.774-1.728 1.727v5.756a2.302 2.302 0 0 1-2.303 2.303h-5.756a1.727 1.727 0 1 0 0 3.455h5.756a5.757 5.757 0 0 0 5.756-5.756V20.32a1.726 1.726 0 0 0-1.726-1.73zM11.683 28.375H5.927a2.302 2.302 0 0 1-2.303-2.303v-5.756a1.727 1.727 0 1 0-3.455 0v5.756a5.757 5.757 0 0 0 5.756 5.756h5.756a1.727 1.727 0 0 0 .002-3.453z"/>
    </g>
</svg>
