<svg width="77" height="50" viewBox="0 0 77 50" fill="none" xmlns="http://www.w3.org/2000/svg">
<path d="M67.4182 29.4388L76.6954 22.3738L60.3883 0.973588L51.1138 8.03949L51.4414 8.46879H33.2011C31.9987 8.46879 29.0764 8.73069 27.4456 10.9735L24.5521 9.64419L25.7743 8.03859L16.4998 0.972687L0.194519 22.3738L9.47172 29.4388L11.2501 27.106L13.3606 28.7179L13.0843 29.0977C12.3526 30.0913 12.0511 31.309 12.2365 32.5258C12.4165 33.7111 13.0411 34.7479 13.9906 35.4463C14.7538 36.0097 15.6646 36.3067 16.6213 36.3067C16.9255 36.3067 17.2243 36.2581 17.5195 36.1987C17.1523 37.8952 17.7526 39.7114 19.2142 40.7896C19.9774 41.3503 20.8846 41.6482 21.8413 41.6482C22.2769 41.6482 22.6999 41.5663 23.1112 41.4457C23.0698 41.8237 23.059 42.2062 23.1139 42.5896C23.2849 43.7956 23.9104 44.8522 24.8779 45.5641C25.642 46.1248 26.5483 46.4209 27.505 46.4209C28.5967 46.4209 29.6479 46.0249 30.4714 45.3283C30.6766 46.3966 31.2472 47.3884 32.1796 48.0751C32.9464 48.6394 33.8563 48.9373 34.813 48.9373C35.731 48.9373 36.6013 48.6331 37.3492 48.1309L38.1394 48.6988C38.9332 49.273 39.8638 49.5718 40.8214 49.5718C41.0689 49.5718 41.32 49.552 41.5693 49.5115C42.7537 49.3171 43.7887 48.6799 44.4781 47.7169C45.0946 46.8637 45.3376 45.8611 45.28 44.8747L45.3862 44.953C46.2043 45.5371 47.1484 45.8188 48.079 45.8188C49.4839 45.8188 50.86 45.1753 51.7285 43.963C52.4188 42.991 52.6501 41.8327 52.4908 40.7266C53.0209 40.9282 53.5708 41.0407 54.1216 41.0407C55.5265 41.0407 56.9044 40.3981 57.7747 39.1849C58.4947 38.176 58.7296 36.9601 58.5289 35.8153C58.9474 35.9341 59.3749 36.0016 59.8015 36.0016C61.2064 36.0016 62.5807 35.3572 63.4501 34.1467C64.1503 33.1702 64.4203 31.9723 64.2106 30.7726C64.045 29.8384 63.6004 29.0014 62.9425 28.3399L65.2474 26.5894L67.4182 29.4388ZM60.0841 3.22359L74.4436 22.0696L67.7215 27.1906L53.3647 8.34369L60.0841 3.22359ZM9.16752 27.1915L2.44542 22.0705L16.8049 3.22449L23.5243 8.34459L9.16752 27.1915ZM14.941 34.1548C14.3362 33.7093 13.9384 33.0451 13.8223 32.2846C13.7017 31.4908 13.8988 30.6979 14.3803 30.0445L15.8491 28.0159C16.4152 27.2473 17.317 26.7901 18.262 26.7901C18.874 26.7901 19.4536 26.98 19.9405 27.3355C20.5462 27.7801 20.944 28.4461 21.0601 29.2084C21.1789 30.0004 20.9827 30.7933 20.5021 31.4467L20.3761 31.6204L18.9055 33.6166C17.9371 34.7533 16.1326 35.0314 14.941 34.1548ZM20.1646 39.4963C18.8821 38.5513 18.6283 36.7072 19.5958 35.3878L20.2123 34.5508C20.2483 34.5049 20.2969 34.4707 20.3311 34.423L21.7126 32.5123L23.788 29.6917C24.3523 28.9267 25.2523 28.4695 26.1964 28.4695C26.8075 28.4695 27.3871 28.6576 27.8749 29.0167C29.1556 29.959 29.413 31.7959 28.4527 33.1162L27.3862 34.5643L24.2542 38.8159C23.32 40.0804 21.3985 40.4044 20.1646 39.4963ZM25.8292 44.2681C25.2127 43.8172 24.8131 43.1395 24.7015 42.3637C24.5917 41.5816 24.7897 40.8013 25.2577 40.165L28.9162 35.1907L29.7397 34.0738C29.7406 34.072 29.7406 34.0702 29.7442 34.0675L31.6846 31.4287C32.2489 30.6628 33.1489 30.2074 34.0957 30.2074C34.7077 30.2074 35.2891 30.3955 35.7733 30.7528C36.3898 31.2064 36.7885 31.8814 36.8983 32.6554C37.0081 33.4375 36.8101 34.2187 36.3421 34.8568L34.0912 37.9141C34.0552 37.96 34.0093 37.9942 33.9751 38.0419L31.2724 41.7292C31.2526 41.7553 31.2409 41.7868 31.222 41.8138L29.9143 43.5922C28.9855 44.8549 27.0622 45.1798 25.8292 44.2681ZM33.1309 46.7827C31.8736 45.8584 31.6144 44.0692 32.5225 42.7534L35.3719 38.8798C35.9398 38.1868 36.7858 37.7674 37.6795 37.7674C38.2888 37.7674 38.8675 37.9555 39.3517 38.311C40.6369 39.2596 40.8943 41.101 39.9223 42.4204L37.2196 46.1068C36.2935 47.3704 34.3756 47.6989 33.1309 46.7827ZM43.1758 46.7782C42.7339 47.3947 42.0697 47.8024 41.3101 47.9266C40.5127 48.049 39.7306 47.8681 39.0772 47.3965L38.5471 47.014L41.2165 43.3708C41.4523 43.0513 41.6242 42.7066 41.7664 42.3538L43.0039 43.2403C43.8373 44.2537 43.9516 45.7018 43.1758 46.7782ZM62.1442 33.2089C61.219 34.5022 59.3785 34.7848 58.0438 33.8272L52.804 30.0904L50.9239 28.744L50.9212 28.7485L48.673 27.1447L47.7424 28.4524L52.0282 31.5088L55.7353 34.1674C57.0655 35.1205 57.3922 36.9547 56.467 38.2489C55.5373 39.544 53.6986 39.8194 52.3657 38.8681L48.0745 35.8153L44.4097 33.1828L43.4728 34.4869L49.6864 38.95C51.0148 39.9004 51.3424 41.731 50.4199 43.0288C49.4938 44.323 47.6542 44.5993 46.3186 43.6453L44.1127 42.064C43.894 41.8201 43.6501 41.5942 43.3747 41.3926L42.0922 40.4755C42.0436 39.1471 41.4415 37.8574 40.3021 37.015C39.4372 36.3823 38.3635 36.1501 37.3114 36.2428L37.6327 35.8054C38.3527 34.8289 38.6569 33.6301 38.4868 32.4322C38.3167 31.2253 37.6903 30.1696 36.7228 29.4586C34.8436 28.0771 31.9771 28.5172 30.5074 30.3487C30.2806 29.3281 29.7226 28.3822 28.8244 27.7225C26.929 26.3293 24.0238 26.7838 22.5676 28.6603C22.3327 27.6046 21.7567 26.6785 20.8891 26.0404C18.9595 24.6274 15.9922 25.1116 14.5513 27.0682L14.3011 27.4165L12.2203 25.8298L23.554 10.9528L26.4799 12.2974L24.8275 14.6023C24.0958 15.595 23.7943 16.8109 23.9806 18.0295C24.1624 19.2148 24.7852 20.2525 25.732 20.9455C26.6806 21.6457 27.856 21.9346 29.0431 21.7555C30.2617 21.5719 31.3345 20.9257 32.0698 19.9294L34.5214 16.5427L38.6119 16.5283C39.1645 19.744 42.2254 22.5988 45.3178 22.5988H52.255L61.4161 29.1256C62.0605 29.5891 62.4898 30.2704 62.6266 31.0462C62.7616 31.8184 62.5906 32.587 62.1442 33.2089ZM61.6366 27.313L52.7698 20.9941H45.3187C42.8167 20.9941 40.249 18.367 40.1347 15.6904L40.0996 14.92L33.7015 14.9416L30.7747 18.9826C30.2986 19.6288 29.5984 20.0491 28.8055 20.167C28.0414 20.2849 27.2917 20.1013 26.6842 19.6513C26.0812 19.2094 25.6861 18.5461 25.5682 17.7883C25.4476 16.9945 25.6438 16.2016 26.1262 15.5464L28.6489 12.0256C29.8711 10.2148 32.4433 10.0744 33.202 10.0744H52.6654L64.2736 25.3096L61.6366 27.313Z" fill="#EE1686"/>
</svg>
