<svg xmlns="http://www.w3.org/2000/svg" width="70" height="70" viewBox="0 0 70 70">
    <g fill="none" fill-rule="nonzero">
        <path fill="#3C3630" d="M27.28 38.608h15.732v2.814H27.279zM27.28 33.052h15.732v2.814H27.279zM27.28 44.455h8.585v2.813H27.28z"/>
        <path fill="#009CD9" d="M68.052 17.463S65.814 6.783 56.145 3.03C51.598 1.226 43.3.36 35.144.36c-8.156 0-16.455.866-20.999 2.6-9.742 3.752-11.98 14.503-11.98 14.503C.72 23.453.286 29.588.286 35.073c0 5.413.434 11.617 1.877 17.607 0 0 2.238 10.681 11.907 14.433 4.547 1.73 12.847 2.6 21.002 2.67 8.225-.071 16.524-.866 21.071-2.67 9.669-3.752 11.908-14.433 11.908-14.433 1.443-6.06 1.947-12.194 1.877-17.607.07-5.486-.434-11.62-1.877-17.61zm-17.754 31.97a4.342 4.342 0 0 1-4.33 4.33h-21.72a4.342 4.342 0 0 1-4.33-4.33V19.989a4.342 4.342 0 0 1 4.33-4.33h15.155l.504.144c.144.073.217.144.361.287l9.599 9.743c.144.143.217.287.287.504l.074.505v22.591h.07z"/>
        <path fill="#3C3630" d="M40.269 24.536c0 .795.648 1.443 1.443 1.443h4.186l-5.63-5.773v4.33z"/>
    </g>
</svg>
