<svg xmlns="http://www.w3.org/2000/svg" width="62" height="42" viewBox="0 0 62 42">
    <path fill="#F9007A" fill-rule="nonzero" d="M60.638 13.53L31.258.142a1.01 1.01 0 0 0-.834 0L1.044 13.529a1 1 0 0 0 0 1.824l12.776 5.822a.925.925 0 0 0-.047.294v13.05c0 .72.479 7.03 17.068 7.03 16.59 0 17.068-6.31 17.068-7.03V21.47c0-.1-.02-.199-.047-.294l6.07-2.768v14.437a1.002 1.002 0 1 0 0 2.006h2.01a1.002 1.002 0 1 0 0-2.006v-15.35l4.698-2.14c.359-.166.589-.522.589-.914a1.004 1.004 0 0 0-.592-.91zM45.9 34.491c0 .05-.463 5.049-15.06 5.049-14.597 0-15.056-4.996-15.059-5.02V22.07l14.645 6.673a1.013 1.013 0 0 0 .83 0l14.644-6.67v12.42zm-15.06-7.769L3.886 14.44 30.841 2.157 57.8 14.44 30.84 26.723z"/>
</svg>
