<svg xmlns="http://www.w3.org/2000/svg" width="75" height="53" viewBox="0 0 75 53">
    <path fill="#F9007A" fill-rule="evenodd" d="M67.978 53l-9.423-7.411h-31.68c-2.793 0-5.081-2.301-5.081-5.11l.003-23.67c0-2.81 2.288-5.11 5.081-5.11H69.92c2.793 0 5.081 2.3 5.081 5.11V40.52c0 2.809-2.288 5.11-5.08 5.11h-1.938L67.978 53zM26.875 14.352c-1.32 0-2.405 1.092-2.405 2.419v23.712c0 1.327 1.085 2.419 2.405 2.419h33.154l5.311 4.056v-4.056h4.614c1.319 0 2.404-1.092 2.404-2.419V16.81c0-1.327-1.085-2.419-2.404-2.419h-43.08v-.038zm-7.057 16.885H15.05l-5.314 4.098v-4.056H5.122c-1.32 0-2.405-1.092-2.405-2.419V5.11c0-1.327 1.086-2.419 2.405-2.419h43.041c1.32 0 2.405 1.092 2.405 2.419v4.837h2.638l-.003-4.837C53.203 2.3 50.915 0 48.122 0H5.08C2.288 0 0 2.301 0 5.11v23.712c0 2.81 2.288 5.11 5.08 5.11h1.938v7.411l9.424-7.41h3.335l.004-2.696h.037zM45.1 35.763c-.31 0-.622-.117-.852-.352l-4.38-4.405c-.464-.467-.464-1.248 0-1.755.464-.467 1.24-.467 1.745 0l3.528 3.548 9.694-9.671c.464-.467 1.24-.467 1.746 0 .463.466.463 1.247 0 1.755l-10.547 10.53c-.312.232-.622.35-.934.35z"/>
</svg>
