<svg xmlns="http://www.w3.org/2000/svg" xmlns:xlink="http://www.w3.org/1999/xlink" width="25" height="25" viewBox="0 0 25 25">
    <defs>
        <path id="a" d="M0 .008h24.992v24.989H0z"/>
    </defs>
    <g fill="none" fill-rule="evenodd" opacity=".8">
        <g>
            <mask id="b" fill="#fff">
                <use xlink:href="#a"/>
            </mask>
            <path fill="#4D4D4D" d="M12.496.008c-3.394 0-3.82.014-5.152.075-1.33.06-2.238.272-3.033.58a6.125 6.125 0 0 0-2.214 1.442A6.125 6.125 0 0 0 .657 4.32c-.31.794-.521 1.703-.582 3.033C.015 8.685 0 9.11 0 12.504s.014 3.82.075 5.152c.06 1.33.272 2.238.581 3.033.32.822.747 1.519 1.441 2.214a6.126 6.126 0 0 0 2.214 1.441c.795.309 1.703.52 3.033.58 1.333.062 1.758.076 5.152.076s3.82-.014 5.152-.075c1.33-.06 2.239-.272 3.033-.581a6.126 6.126 0 0 0 2.214-1.441 6.126 6.126 0 0 0 1.441-2.214c.309-.795.52-1.703.58-3.033.062-1.333.076-1.758.076-5.152s-.014-3.82-.075-5.152c-.06-1.33-.272-2.239-.58-3.033a6.126 6.126 0 0 0-1.442-2.214A6.125 6.125 0 0 0 20.68.664c-.794-.309-1.703-.52-3.033-.58C16.315.021 15.89.007 12.496.007zm0 2.251c3.337 0 3.732.013 5.05.073 1.218.056 1.88.26 2.32.43.583.227 1 .498 1.437.935.437.438.708.854.934 1.437.172.44.375 1.102.43 2.32.06 1.318.074 1.713.074 5.05 0 3.337-.013 3.732-.073 5.05-.056 1.218-.26 1.88-.43 2.32-.227.583-.498 1-.935 1.437a3.871 3.871 0 0 1-1.437.934c-.44.171-1.102.375-2.32.43-1.318.06-1.713.073-5.05.073-3.337 0-3.732-.012-5.05-.072-1.218-.056-1.88-.26-2.32-.43-.583-.227-1-.498-1.437-.935a3.872 3.872 0 0 1-.934-1.437c-.171-.44-.375-1.102-.43-2.32-.06-1.318-.073-1.713-.073-5.05 0-3.337.012-3.732.072-5.05.056-1.218.26-1.88.43-2.32.227-.583.498-1 .935-1.437a3.871 3.871 0 0 1 1.437-.934c.44-.172 1.102-.375 2.32-.43 1.318-.06 1.713-.074 5.05-.074z" mask="url(#b)"/>
        </g>
        <path fill="#4D4D4D" d="M12.496 16.67a4.165 4.165 0 1 1 0-8.331 4.165 4.165 0 0 1 0 8.33zm0-10.583a6.417 6.417 0 1 0 0 12.834 6.417 6.417 0 0 0 0-12.834zM20.666 5.834a1.5 1.5 0 1 1-2.999 0 1.5 1.5 0 0 1 2.999 0"/>
    </g>
</svg>
