<svg width="117" height="28" viewBox="0 0 117 28" fill="none" xmlns="http://www.w3.org/2000/svg">
<path fill-rule="evenodd" clip-rule="evenodd" d="M72.602 0.359863H70.9415C70.0925 0.359863 69.4994 0.952733 69.4994 1.80143V23.6808H62.5953C58.3258 23.6808 56.5931 23.4097 56.5931 16.5907V1.80143C56.5931 0.952733 56 0.359863 55.151 0.359863H53.5382C52.6892 0.359863 52.0483 0.979128 52.0483 1.80143V16.5907C52.0483 26.2817 55.5562 27.9862 62.9285 27.9862C65.5792 27.9862 69.211 27.9862 72.6742 27.4979L72.7544 27.4816C73.6095 27.2674 74.0442 26.7771 74.0442 26.0238V1.80143C74.0442 0.952733 73.4511 0.359863 72.602 0.359863Z" fill="white"/>
<path fill-rule="evenodd" clip-rule="evenodd" d="M92.5302 0.411573L92.4174 0.382133C91.4445 0.177065 88.7846 0.027832 87.4654 0.027832C82.7987 0.027832 80.3318 1.98512 80.3318 5.68852V26.307C80.3318 27.1567 80.9249 27.7496 81.775 27.7496H83.4344C84.2845 27.7496 84.8776 27.1567 84.8776 26.307V6.06719C84.8776 5.15352 85.1071 4.33325 87.8929 4.33325L92.0152 4.32919C92.4195 4.37791 92.8054 4.26624 93.1009 4.01448C93.4249 3.74139 93.6026 3.34242 93.6026 2.89168V1.84908C93.6026 1.16383 93.2116 0.639991 92.5302 0.411573Z" fill="white"/>
<mask id="mask0" mask-type="alpha" maskUnits="userSpaceOnUse" x="95" y="0" width="22" height="28">
<path fill-rule="evenodd" clip-rule="evenodd" d="M95.3169 0.027832H116.98V27.9866H95.3169V0.027832Z" fill="white"/>
</mask>
<g mask="url(#mask0)">
<path fill-rule="evenodd" clip-rule="evenodd" d="M106.291 0.027832C101.513 0.027832 98.8126 0.951653 97.2618 3.11807C95.6429 5.38092 95.3169 8.95337 95.3169 13.9836C95.3169 23.8584 96.8423 27.9871 106.291 27.9871C107.426 27.9871 111.305 27.9648 113.57 27.6887C114.452 27.5415 114.847 26.8654 114.847 26.2603V25.17C114.847 24.3213 114.206 23.6807 113.357 23.6807H106.291C100.96 23.6807 99.9988 22.4219 99.8617 15.2628V12.9471C99.9074 5.62152 100.868 4.33325 106.291 4.33325C111.292 4.33325 112.25 5.47635 112.417 11.9258H104.472V16.278H114.922C116.98 16.278 116.98 14.8364 116.98 14.3633V12.9725C116.831 2.93127 114.434 0.027832 106.291 0.027832Z" fill="white"/>
</g>
<path fill-rule="evenodd" clip-rule="evenodd" d="M46.9288 1.03734C46.7155 0.583555 46.2585 0.3125 45.706 0.3125H43.5722C42.9527 0.3125 42.4896 0.562236 42.2458 1.01298L39.0833 5.64224L41.8518 9.43498L46.685 2.48906C47.2162 1.84239 47.0324 1.25866 46.9288 1.03734Z" fill="white"/>
<path fill-rule="evenodd" clip-rule="evenodd" d="M30.2573 0.96019L30.2542 0.956129C29.7718 0.3125 29.131 0.3125 28.9197 0.3125H26.8327C26.2985 0.3125 25.8608 0.558176 25.6312 0.986585C25.3966 1.42515 25.4464 1.95304 25.7714 2.44135L33.5031 13.18L24.6126 25.6029C24.3018 26.0699 24.2581 26.5896 24.4938 27.0282C24.7233 27.4566 25.161 27.7023 25.6952 27.7023H27.829C28.3774 27.7023 28.8598 27.417 29.1005 26.9673L39.0514 13.2287L30.2573 0.96019Z" fill="white"/>
<path fill-rule="evenodd" clip-rule="evenodd" d="M48.0127 25.9748L42.6268 18.5747L40.2571 21.8445L44.5168 27.5357L44.6279 27.5841C44.8114 27.6634 44.9869 27.7022 45.165 27.7022H46.9765C47.4139 27.7022 47.7861 27.5066 47.996 27.1675C48.2121 26.8187 48.2174 26.3844 48.0127 25.9748Z" fill="white"/>
<mask id="mask1" mask-type="alpha" maskUnits="userSpaceOnUse" x="0" y="0" width="21" height="28">
<path fill-rule="evenodd" clip-rule="evenodd" d="M0.000244141 0.0131836H20.9521V27.9722H0.000244141V0.0131836Z" fill="white"/>
</mask>
<g mask="url(#mask1)">
<path fill-rule="evenodd" clip-rule="evenodd" d="M16.4073 16.0745V23.3168C14.2948 23.6417 11.0754 23.7138 9.9775 23.7138C5.12293 23.7138 4.59177 22.3849 4.59177 19.5627C4.59177 16.9222 5.57792 16.0745 8.65011 16.0745H16.4073ZM9.74086 0.0131836C8.24082 0.0131836 6.1954 0.0517607 3.65031 0.359363L3.53555 0.383727C2.79416 0.595902 2.41839 1.08319 2.41839 1.83443V2.87703C2.41839 3.76634 2.97087 4.3186 3.86054 4.3186H9.74086C14.4756 4.3186 16.4073 5.60383 16.4073 8.75497V11.8168H8.65011C2.58698 11.8168 0.000244141 14.1324 0.000244141 19.5627C0.000244141 25.6142 2.67736 27.9725 9.55094 27.9725C12.3347 27.9725 17.4604 27.7563 19.3545 27.1776C20.9521 26.7329 20.9521 25.5107 20.9521 25.1076V8.47072C20.9521 2.77957 17.2847 0.0131836 9.74086 0.0131836Z" fill="white"/>
</g>
</svg>
