<svg width="34" height="34" viewBox="0 0 34 34" fill="none" xmlns="http://www.w3.org/2000/svg">
<path d="M21.2431 26.5158C21.6083 26.1506 21.6083 25.5596 21.2431 25.1877L17.936 21.8807V18.0159C17.936 17.498 17.5177 17.0796 16.9997 17.0796C16.4818 17.0796 16.0634 17.498 16.0634 18.0159V21.8807L12.7563 25.1877C12.3911 25.553 12.3911 26.144 12.7563 26.5158C13.1216 26.8811 13.7126 26.8811 14.0845 26.5158L16.9997 23.6006L19.9149 26.5158C20.3798 26.8877 20.8247 26.8678 21.243 26.5158H21.2431Z" fill="#F9007A"/>
<path d="M17 6.89959C18.866 6.89959 20.3867 5.37888 20.3867 3.51289C20.3867 1.6469 18.866 0.132812 17 0.132812C15.134 0.132812 13.6133 1.65353 13.6133 3.51952C13.6133 5.38554 15.134 6.89959 17 6.89959ZM17 2.00529C17.8301 2.00529 18.5074 2.68264 18.5074 3.51935C18.5074 4.34942 17.8301 5.02677 17 5.02677C16.1699 5.02677 15.4859 4.34942 15.4859 3.51935C15.4859 2.68264 16.1699 2.00529 17 2.00529Z" fill="#F9007A"/>
<path d="M10.9901 15.2799H22.9765C23.4945 15.2799 23.9128 14.8615 23.9128 14.3435V12.1721C23.9128 11.3553 23.5609 10.5982 22.9366 10.0869C21.2632 8.71896 19.1514 7.96191 16.9798 7.96191C14.8084 7.96191 12.6965 8.71896 11.023 10.0869C10.4055 10.5916 10.0469 11.3553 10.0469 12.1721V14.3435C10.0535 14.8615 10.4719 15.2799 10.9898 15.2799H10.9901ZM11.9265 12.1721C11.9265 11.9197 12.0327 11.6873 12.212 11.5412C13.5468 10.4455 15.2468 9.8412 16.9798 9.8412C18.7197 9.8412 20.4131 10.4455 21.7476 11.5412C21.9269 11.6873 22.0332 11.9263 22.0332 12.1721V13.4072H11.926L11.9265 12.1721Z" fill="#F9007A"/>
<path d="M7.07884 25.4868C8.94487 25.4868 10.4656 23.9661 10.4656 22.1001C10.4656 20.2341 8.94483 18.7134 7.07884 18.7134C5.21282 18.7134 3.69214 20.2341 3.69214 22.1001C3.69878 23.9661 5.21286 25.4868 7.07884 25.4868ZM7.07884 20.5925C7.90892 20.5925 8.58627 21.2698 8.58627 22.0999C8.58627 22.93 7.90892 23.6073 7.07884 23.6073C6.24877 23.6073 5.57142 22.93 5.57142 22.0999C5.57142 21.2698 6.24877 20.5925 7.07884 20.5925Z" fill="#F9007A"/>
<path d="M13.0223 28.6743C11.3489 27.3064 9.23712 26.5493 7.06554 26.5493C4.89396 26.5493 2.78222 27.3064 1.10874 28.6743C0.484536 29.179 0.132568 29.9427 0.132568 30.7595V32.9309C0.132568 33.4489 0.550938 33.8673 1.06889 33.8673H13.0553C13.5732 33.8673 13.9916 33.4489 13.9916 32.9309V30.7595C13.9916 29.9427 13.6396 29.179 13.022 28.6743H13.0223ZM12.1192 31.9946H2.00559V30.7595C2.00559 30.5071 2.11184 30.2747 2.29114 30.1286C3.62591 29.0329 5.32591 28.4286 7.05896 28.4286C8.79881 28.4286 10.4923 29.0329 11.8268 30.1286C12.0061 30.2747 12.1123 30.5138 12.1123 30.7595V31.9946H12.1192Z" fill="#F9007A"/>
<path d="M26.9543 25.4868C28.8204 25.4868 30.341 23.9661 30.341 22.1001C30.341 20.2341 28.8203 18.7134 26.9543 18.7134C25.0883 18.7134 23.5676 20.2341 23.5676 22.1001C23.5676 23.9661 25.0883 25.4868 26.9543 25.4868ZM26.9543 20.5925C27.7844 20.5925 28.4618 21.2698 28.4618 22.0999C28.4618 22.93 27.7844 23.6073 26.9543 23.6073C26.1243 23.6073 25.4469 22.93 25.4469 22.0999C25.4403 21.2698 26.1176 20.5925 26.9543 20.5925Z" fill="#F9007A"/>
<path d="M32.891 28.6743C31.2175 27.3064 29.1058 26.5493 26.9342 26.5493C24.7626 26.5493 22.6509 27.3064 20.9774 28.6743C20.3598 29.179 20.0012 29.9427 20.0012 30.7595V32.9309C20.0012 33.4489 20.4196 33.8673 20.9375 33.8673H32.9239C33.4419 33.8673 33.8602 33.4489 33.8602 32.9309V30.7595C33.8669 29.9427 33.5149 29.179 32.8907 28.6743H32.891ZM31.9945 31.9946H21.8809V30.7595C21.8809 30.5138 21.9871 30.2747 22.1664 30.1286C23.5012 29.0329 25.2012 28.4286 26.9342 28.4286C28.6673 28.4286 30.3676 29.0329 31.7021 30.1286C31.8814 30.2747 31.9876 30.5138 31.9876 30.7595V31.9946H31.9945Z" fill="#F9007A"/>
</svg>
