<svg xmlns="http://www.w3.org/2000/svg" width="34" height="34" viewBox="0 0 34 34">
    <g fill="#EE1686" fill-rule="nonzero">
        <path d="M24.438 19.125c-5.273 0-9.563-4.29-9.563-9.563C14.875 4.29 19.165 0 24.438 0 29.71 0 34 4.29 34 9.563c0 5.272-4.29 9.562-9.563 9.562zm0-17c-4.1 0-7.438 3.336-7.438 7.438 0 4.1 3.338 7.437 7.438 7.437s7.437-3.336 7.437-7.438c0-4.1-3.338-7.437-7.438-7.437zM9.563 34C4.29 34 0 29.71 0 24.437c0-5.272 4.29-9.562 9.563-9.562 5.272 0 9.562 4.29 9.562 9.563 0 5.272-4.29 9.562-9.563 9.562zm0-17c-4.102 0-7.438 3.338-7.438 7.438s3.336 7.437 7.438 7.437c4.1 0 7.437-3.338 7.437-7.438S13.664 17 9.562 17z"/>
        <path d="M23.375 13.813a1.06 1.06 0 0 1-.765-.326l-2.337-2.422A1.062 1.062 0 1 1 21.8 9.589l1.518 1.574 3.492-4.155a1.063 1.063 0 0 1 1.627 1.367l-4.25 5.058c-.194.23-.476.369-.777.38h-.036zM6.375 28.688a1.06 1.06 0 0 1-.752-1.813l6.375-6.375a1.06 1.06 0 0 1 1.502 0 1.06 1.06 0 0 1 0 1.502l-6.375 6.375c-.205.207-.478.31-.75.31z"/>
        <path d="M12.75 28.688a1.06 1.06 0 0 1-.752-.311l-6.375-6.375a1.06 1.06 0 0 1 0-1.502 1.06 1.06 0 0 1 1.502 0l6.375 6.375a1.06 1.06 0 0 1-.75 1.813z"/>
    </g>
</svg>
