<svg xmlns="http://www.w3.org/2000/svg" width="36" height="34" viewBox="0 0 36 34">
    <g fill="#EE1686" fill-rule="nonzero">
        <path d="M22.48.04h-8.96v9h8.96v-9zM19.417 5.95l-2.834-.002V3.13h2.796l.038 2.821zM13.52 33.96h8.96v-9h-8.96v9zm3.063-5.911h2.796v2.82h-2.796v-2.82zM26.732 33.96h8.924v-9h-8.924v9zm3.064-5.911h2.796v2.82h-2.796v-2.82zM9.268 24.96H.344v9.001h8.924V24.96zm-3.064 5.912l-2.796-.002v-2.82h2.796v2.822zM6.167 17.85h10.301v6.105h3.064V17.85h10.301v6.105h3.064v-9.196H19.532v-4.52h-3.064v4.52H3.103v9.196h3.064z"/>
    </g>
</svg>
