<svg width="44" height="44" viewBox="0 0 44 44" fill="none" xmlns="http://www.w3.org/2000/svg">
<path d="M23.1463 7.03996C16.7953 7.03996 11.3367 10.9106 9.09358 16.4172L8.19985 14.836C7.9661 14.3942 7.50377 14.1227 7.00358 14.1347C6.53779 14.145 6.11157 14.4011 5.88294 14.8067C5.65435 15.214 5.65778 15.7108 5.88982 16.1147L8.30982 20.446C8.66044 21.0665 9.43903 21.2967 10.0698 20.9685L14.3735 18.7685C14.7018 18.6189 14.9528 18.3422 15.0713 18.0019C15.1899 17.6633 15.1642 17.2903 15.0009 16.9689C14.8376 16.6492 14.5506 16.4086 14.2068 16.3038C13.8631 16.2006 13.4918 16.2402 13.1773 16.4172L11.596 17.2285C13.4867 12.8043 17.9417 9.67983 23.146 9.67983C30.076 9.67983 35.6447 15.1899 35.6447 21.9998C35.6447 28.8097 30.076 34.3198 23.146 34.3198C17.2179 34.3198 12.2785 30.2515 10.9774 24.8325C10.8072 24.1227 10.0939 23.6844 9.38238 23.8563C8.67253 24.0264 8.23596 24.7414 8.40611 25.4513C9.99253 32.053 16.0097 36.9599 23.1461 36.9599C31.4837 36.9599 38.2847 30.257 38.2847 21.9999C38.2847 13.7429 31.4837 7.03992 23.1461 7.03992L23.1463 7.03996ZM23.3113 13.6127C22.959 13.6161 22.6238 13.7605 22.378 14.0131C22.1322 14.2658 21.9982 14.6079 22.005 14.9602V22.0002C22.005 22.4006 22.1872 22.7805 22.5 23.0314L26.9 26.5514C27.175 26.7697 27.524 26.8711 27.8711 26.8316C28.22 26.7938 28.538 26.6185 28.758 26.3452C28.9763 26.0719 29.0777 25.7212 29.0381 25.3741C29.0003 25.0252 28.825 24.7072 28.55 24.4889L24.645 21.3677V14.9604C24.6536 14.6029 24.5161 14.2574 24.2634 14.003C24.0125 13.7504 23.6687 13.6094 23.3112 13.6129L23.3113 13.6127Z" fill="#F9007A"/>
</svg>
