<svg xmlns="http://www.w3.org/2000/svg" width="34" height="34" viewBox="0 0 34 34">
    <path fill="#EE1686" fill-rule="nonzero" d="M1.963 23.5l15.247 8.234L32.457 23.5a1.044 1.044 0 0 1 1.42.438 1.07 1.07 0 0 1-.433 1.437l-15.74 8.5a1.04 1.04 0 0 1-.988 0l-15.74-8.5a1.07 1.07 0 0 1-.433-1.437 1.044 1.044 0 0 1 1.42-.438zm0-7.438l15.247 8.234 15.247-8.234a1.044 1.044 0 0 1 1.42.438 1.07 1.07 0 0 1-.433 1.438l-15.74 8.5a1.04 1.04 0 0 1-.988 0l-15.74-8.5A1.07 1.07 0 0 1 .543 16.5a1.044 1.044 0 0 1 1.42-.438zM17.703.125l15.741 8.5c.741.4.741 1.475 0 1.876L17.704 19a1.04 1.04 0 0 1-.988 0L.976 10.5c-.741-.4-.741-1.476 0-1.876l15.74-8.5a1.04 1.04 0 0 1 .988 0zM3.7 9.563l13.511 7.296 13.511-7.297-13.51-7.296L3.698 9.562z"/>
</svg>
