<svg xmlns="http://www.w3.org/2000/svg" width="34" height="33" viewBox="0 0 34 33">
    <path fill="#EE1686" fill-rule="nonzero" d="M28.484 22.047c-2.463 0-4.51 1.686-5.168 3.932H18.63V4.073h-7.945C10.062 1.791 7.98.106 5.516.106 2.567.106.14 2.527.14 5.547c0 2.984 2.393 5.442 5.377 5.442 2.464 0 4.51-1.686 5.169-3.932h4.995v21.906h7.598c.66 2.246 2.742 3.931 5.206 3.931 2.95 0 5.378-2.421 5.378-5.441-.035-2.984-2.429-5.406-5.378-5.406zM5.516 8.005c-1.353 0-2.429-1.09-2.429-2.458S4.163 3.09 5.516 3.09c1.352 0 2.429 1.089 2.429 2.457.035 1.369-1.075 2.458-2.429 2.458zM28.484 29.91c-1.352 0-2.428-1.089-2.428-2.457 0-1.369 1.076-2.458 2.428-2.458 1.353 0 2.429 1.09 2.429 2.458 0 1.37-1.111 2.457-2.429 2.457z"/>
</svg>
