<svg width="34" height="34" viewBox="0 0 34 34" fill="none" xmlns="http://www.w3.org/2000/svg">
<path d="M17.0158 20.8648C18.5179 20.8648 19.8793 21.4758 20.866 22.4625L22.4611 20.8675C21.3149 19.7213 19.8088 18.9337 18.1301 18.6907L15.8179 21.0029C16.2043 20.9153 16.6041 20.8648 17.0158 20.8648V20.8648Z" fill="#F9007A"/>
<path d="M14.782 24.0773L17.0159 26.3112L19.2498 24.0773C18.6787 23.5049 17.8871 23.1516 17.0159 23.1516C16.1433 23.1529 15.3531 23.5062 14.782 24.0773Z" fill="#F9007A"/>
<path d="M17.0159 14.1245C13.6557 14.1245 10.6089 15.4911 8.40161 17.6986L9.99669 19.2937C11.2743 18.016 12.8987 17.0863 14.7128 16.6534L17.2363 14.1299C17.1632 14.1299 17.0902 14.1246 17.0158 14.1246L17.0159 14.1245Z" fill="#F9007A"/>
<path d="M24.0347 19.2937L25.6298 17.6986C24.5235 16.5923 23.2046 15.6972 21.7422 15.0796L19.9851 16.8354C21.5311 17.3215 22.9163 18.1741 24.0345 19.2938L24.0347 19.2937Z" fill="#F9007A"/>
<path d="M17.0159 9.62866C12.4168 9.62866 8.24497 11.5 5.22339 14.5216L6.81846 16.1167C9.43089 13.5043 13.0381 11.8867 17.0157 11.8867C17.7927 11.8867 18.555 11.9505 19.3001 12.0687L21.206 10.1628C19.8673 9.81354 18.4634 9.62892 17.0158 9.62892L17.0159 9.62866Z" fill="#F9007A"/>
<path d="M23.428 13.3929C24.8345 14.0941 26.1134 15.0145 27.2132 16.1155L28.8083 14.5204C27.7126 13.4247 26.4628 12.4818 25.0989 11.7234L23.428 13.3929Z" fill="#F9007A"/>
<path d="M17.0941 1.47949C8.53557 1.47949 1.57373 8.44167 1.57373 16.9998C1.57373 25.558 8.53693 32.5201 17.0941 32.5201C25.6525 32.5201 32.6144 25.5569 32.6144 16.9998C32.6157 8.44133 25.6522 1.47949 17.0941 1.47949ZM17.0941 3.7187C20.2962 3.7187 23.2379 4.85824 25.5342 6.75214L6.84611 25.4402C4.95088 23.1439 3.81266 20.2022 3.81266 17.0001C3.81266 9.67683 9.77048 3.719 17.0937 3.719L17.0941 3.7187ZM17.0941 30.2812C13.8919 30.2812 10.9516 29.1417 8.65525 27.2478L27.3434 8.56101C29.2373 10.8573 30.3768 13.7977 30.3768 16.9998C30.3755 24.3231 24.4176 30.2809 17.0944 30.2809L17.0941 30.2812Z" fill="#F9007A"/>
</svg>
