<svg width="78" height="18" viewBox="0 0 78 18" fill="none" xmlns="http://www.w3.org/2000/svg">
<g opacity="0.2">
<path d="M12.2826 3.91212H8.91582V17.6049H4.70327V3.91212H0.498777L0.490723 0.158679H13.4747L12.2826 3.91212ZM46.8288 3.91212H43.172V17.6049H38.9675V3.91212H34.7469L34.7388 0.158679H48.0208L46.8288 3.91212ZM18.4283 17.6049H14.2963L14.2641 5.70829H18.4283V17.6049ZM24.2356 8.23743L28.3596 4.21014H33.3212L28.1099 9.26842L33.9495 17.6049H29.3664L25.468 11.8137L24.2356 13.0057V17.6049H20.0795V0.110352H24.2356V8.23743ZM68.3345 8.23743L72.4504 4.21014H77.412L72.2007 9.26842L78 17.6049H73.4169L69.5266 11.8137L68.3345 13.0057V17.6049H64.1703L64.13 0.110352H68.3345V8.23743Z" fill="black"/>
<path d="M16.3503 4.34708C17.5069 4.34708 18.4445 3.40947 18.4445 2.25288C18.4445 1.09629 17.5069 0.158691 16.3503 0.158691C15.1937 0.158691 14.2561 1.09629 14.2561 2.25288C14.2561 3.40947 15.1937 4.34708 16.3503 4.34708Z" fill="black"/>
<path d="M54.5451 13.948C52.6323 13.948 51.0816 12.3973 51.0816 10.4845C51.0816 8.57171 52.6323 7.02104 54.5451 7.02104C56.4579 7.02104 58.0085 8.57171 58.0085 10.4845C58.0041 12.3955 56.456 13.9436 54.5451 13.948ZM54.5451 3.36426C50.6126 3.36426 47.4248 6.5521 47.4248 10.4845C47.4248 14.4169 50.6126 17.6048 54.5451 17.6048C58.4775 17.6048 61.6653 14.4169 61.6653 10.4845C61.6653 9.54947 61.4811 8.62358 61.1233 7.75971C60.7655 6.89584 60.241 6.11091 59.5798 5.44973C58.9187 4.78856 58.1337 4.26408 57.2699 3.90625C56.406 3.54843 55.4801 3.36426 54.5451 3.36426Z" fill="black"/>
</g>
</svg>
